<svg width="0" height="0" class="hidden">
  <symbol  xmlns="http://www.w3.org/2000/svg" viewBox="0 0 60 61" id="adv1">
    <path d="M30 2.31226L7.5 11.2198V30.1515C7.50733 34.9772 8.78108 39.7167 11.194 43.896C13.6069 48.0752 17.0744 51.548 21.25 53.9672L30 59.0175L38.75 53.9662C42.9255 51.5472 46.393 48.0745 48.8058 43.8955C51.2188 39.7162 52.4925 34.9772 52.5 30.1515V11.2198L30 2.31226ZM50 30.1515C49.9933 34.5385 48.8353 38.847 46.6418 42.6462C44.4482 46.4452 41.296 49.6022 37.5 51.8015L30 56.1312L22.5 51.8015C18.704 49.6022 15.5517 46.4455 13.3582 42.6462C11.1646 38.847 10.0067 34.5385 10 30.1515V12.9188L30 5.00152L50 12.9193V30.1515ZM22.5465 25.9227L20.7787 27.6902L28.4937 35.405L39.69 24.2113L37.9222 22.4438L28.4937 31.87L22.5465 25.9227Z" fill="#FEC110"></path>
  </symbol>
  <symbol  xmlns="http://www.w3.org/2000/svg" viewBox="0 0 40 47" id="adv2">
    <path d="M20 20.0765C21.8955 20.0765 23.7485 19.5145 25.3245 18.4614C26.9005 17.4083 28.129 15.9115 28.8543 14.1603C29.5798 12.4091 29.7695 10.4821 29.3995 8.62306C29.0297 6.76401 28.117 5.05636 26.7765 3.71611C25.4362 2.37584 23.7285 1.46316 21.8695 1.09346C20.0102 0.723788 18.0832 0.913687 16.3322 1.63919C14.581 2.36469 13.0843 3.59319 12.0314 5.16931C10.9785 6.74546 10.4166 8.59844 10.4168 10.4939C10.4199 13.0345 11.4306 15.4701 13.2272 17.2665C15.0237 19.063 17.4595 20.0735 20 20.0765ZM20 3.40969C21.401 3.40964 22.7705 3.82501 23.9352 4.60329C25.1002 5.38156 26.0082 6.48779 26.5445 7.78209C27.0805 9.07639 27.221 10.5006 26.9478 11.8747C26.6745 13.2487 26 14.5109 25.0095 15.5016C24.0188 16.4923 22.7567 17.167 21.3827 17.4405C20.0087 17.7139 18.5845 17.5737 17.29 17.0377C15.9958 16.5017 14.8894 15.5939 14.1109 14.4291C13.3325 13.2643 12.9169 11.8949 12.9168 10.4939C12.9189 8.61601 13.6659 6.81561 14.9938 5.48771C16.3218 4.15984 18.122 3.41286 20 3.41069V3.40969ZM39.2675 32.979C35.529 29.238 30.7762 26.6747 25.5965 25.6062L20 34.1912L14.4035 25.6072C9.22388 26.676 4.47103 29.239 0.732501 32.98L0 33.7125V46.5015H40V33.7125L39.2675 32.979ZM37.5 44.0015H2.5V34.7587C2.52775 34.7337 2.8 34.464 2.828 34.439C5.77842 31.5752 9.409 29.5097 13.378 28.4362L16.293 32.8445L18.8878 36.7787L20 38.459L21.125 36.764L23.6908 32.8727L26.623 28.4362C30.592 29.5095 34.2227 31.5752 37.173 34.439C37.2012 34.464 37.473 34.7335 37.501 34.7587L37.5 44.0015Z" fill="#FEC110"></path>
  </symbol>
  <symbol  xmlns="http://www.w3.org/2000/svg" viewBox="0 0 60 61" id="adv3">
    <path fill-rule="evenodd" clip-rule="evenodd" d="M35 52.5015L37.7864 50.0015H60V51.2515C54.9077 52.0897 49.755 52.5077 44.5942 52.5015H35ZM10.0135 7.50146L12.4404 30.0015L14.9066 29.5564L12.7978 10.0015H47.2025L44.5395 34.69C44.4828 35.2223 44.3778 35.7447 44.2274 36.2515L46.3934 37.6478C46.7112 36.7869 46.9249 35.8841 47.0248 34.958L47.29 32.5015H48.292C50.7592 32.5015 53.1393 31.5895 54.9748 29.9407C56.81 28.292 57.9712 26.023 58.2347 23.57L58.681 19.42C58.7748 18.5478 58.684 17.6657 58.4145 16.831C58.145 15.9963 57.7027 15.2276 57.1165 14.575C56.5305 13.9225 55.8135 13.4006 55.0125 13.0433C54.2112 12.6861 53.344 12.5014 52.4668 12.5015H49.4473L49.9865 7.50146H10.0135ZM49.1775 15.0015H52.4668C52.993 15.0015 53.5132 15.1122 53.9937 15.3265C54.4745 15.5408 54.9045 15.8538 55.2563 16.2453C55.6078 16.6367 55.8732 17.0977 56.035 17.5984C56.1967 18.0991 56.2515 18.6283 56.1952 19.1515L55.75 23.303C55.555 25.144 54.6847 26.8475 53.3075 28.0845C51.9302 29.3217 50.1432 30.0045 48.292 30.0015H47.5595L49.1775 15.0015Z" fill="#FEC110"></path>
    <mask id="path-2-inside-1_17_4209" fill="white">
      <path d="M7.20775 48.4631L9.00073 50.2561C10.5714 48.6579 12.4446 47.3884 14.5111 46.5219C16.5775 45.6554 18.796 45.2091 21.0367 45.2091C23.2775 45.2091 25.496 45.6554 27.5625 46.5219C29.629 47.3884 31.5022 48.6579 33.0727 50.2561L34.8657 48.4629C33.054 46.6394 30.8992 45.1921 28.526 44.2046C26.1525 43.2171 23.6075 42.7086 21.0367 42.7086C18.4662 42.7086 15.9209 43.2171 13.5475 44.2046C11.1742 45.1921 9.01958 46.6394 7.20775 48.4629V48.4631ZM14.438 55.6934L16.1865 57.4419C16.821 56.8006 17.5762 56.2914 18.4087 55.9439C19.2412 55.5964 20.1345 55.4176 21.0365 55.4176C21.9387 55.4176 22.8317 55.5964 23.6642 55.9439C24.4967 56.2914 25.252 56.8006 25.8865 57.4419L27.6347 55.6934C26.7752 54.8146 25.7487 54.1161 24.6155 53.6394C23.4822 53.1626 22.2655 52.9171 21.036 52.9171C19.8067 52.9171 18.5897 53.1626 17.4565 53.6394C16.3232 54.1161 15.2968 54.8146 14.4373 55.6934H14.438ZM0 41.2554L1.78675 43.0421C4.3041 40.4949 7.30193 38.4726 10.6065 37.0924C13.9111 35.7124 17.4567 35.0016 21.038 35.0016C24.6192 35.0016 28.165 35.7124 31.4695 37.0924C34.774 38.4726 37.772 40.4949 40.2892 43.0421L42.075 41.2564C39.319 38.4819 36.0415 36.2801 32.431 34.7776C28.8207 33.275 24.9487 32.5015 21.0382 32.5015C17.1275 32.5015 13.2556 33.275 9.64515 34.7776C6.03473 36.2801 2.7572 38.4819 0.00124991 41.2564L0 41.2554Z"></path>
    </mask>
    <path d="M7.20775 48.4631L9.00073 50.2561C10.5714 48.6579 12.4446 47.3884 14.5111 46.5219C16.5775 45.6554 18.796 45.2091 21.0367 45.2091C23.2775 45.2091 25.496 45.6554 27.5625 46.5219C29.629 47.3884 31.5022 48.6579 33.0727 50.2561L34.8657 48.4629C33.054 46.6394 30.8992 45.1921 28.526 44.2046C26.1525 43.2171 23.6075 42.7086 21.0367 42.7086C18.4662 42.7086 15.9209 43.2171 13.5475 44.2046C11.1742 45.1921 9.01958 46.6394 7.20775 48.4629V48.4631ZM14.438 55.6934L16.1865 57.4419C16.821 56.8006 17.5762 56.2914 18.4087 55.9439C19.2412 55.5964 20.1345 55.4176 21.0365 55.4176C21.9387 55.4176 22.8317 55.5964 23.6642 55.9439C24.4967 56.2914 25.252 56.8006 25.8865 57.4419L27.6347 55.6934C26.7752 54.8146 25.7487 54.1161 24.6155 53.6394C23.4822 53.1626 22.2655 52.9171 21.036 52.9171C19.8067 52.9171 18.5897 53.1626 17.4565 53.6394C16.3232 54.1161 15.2968 54.8146 14.4373 55.6934H14.438ZM0 41.2554L1.78675 43.0421C4.3041 40.4949 7.30193 38.4726 10.6065 37.0924C13.9111 35.7124 17.4567 35.0016 21.038 35.0016C24.6192 35.0016 28.165 35.7124 31.4695 37.0924C34.774 38.4726 37.772 40.4949 40.2892 43.0421L42.075 41.2564C39.319 38.4819 36.0415 36.2801 32.431 34.7776C28.8207 33.275 24.9487 32.5015 21.0382 32.5015C17.1275 32.5015 13.2556 33.275 9.64515 34.7776C6.03473 36.2801 2.7572 38.4819 0.00124991 41.2564L0 41.2554Z" fill="#FEC110"></path>
    <path d="M7.20775 48.4631H6.20775V48.8773L6.50064 49.1702L7.20775 48.4631ZM9.00073 50.2561L8.29361 50.9632L9.00691 51.6765L9.71397 50.957L9.00073 50.2561ZM14.5111 46.5219L14.8977 47.4441L14.8978 47.4441L14.5111 46.5219ZM33.0727 50.2561L32.3595 50.957L33.0666 51.6766L33.7799 50.9632L33.0727 50.2561ZM34.8657 48.4629L35.5729 49.1699L36.2776 48.4651L35.5751 47.758L34.8657 48.4629ZM28.526 44.2046L28.9101 43.2814L28.9101 43.2813L28.526 44.2046ZM7.20775 48.4629L6.49838 47.758L6.20775 48.0505V48.4629H7.20775ZM14.438 55.6934L15.1451 54.9863L14.8522 54.6934H14.438V55.6934ZM16.1865 57.4419L15.4794 58.149L16.1902 58.8598L16.8973 58.1452L16.1865 57.4419ZM25.8865 57.4419L25.1756 58.1452L25.8828 58.8599L26.5936 58.1489L25.8865 57.4419ZM27.6347 55.6934L28.3419 56.4004L29.0411 55.7011L28.3496 54.9941L27.6347 55.6934ZM14.4373 55.6934L13.7224 54.9941L12.0602 56.6934H14.4373V55.6934ZM0 41.2554L0.624332 40.4742L-0.707107 41.9625L0 41.2554ZM1.78675 43.0421L1.07964 43.7492L1.79094 44.4605L2.49802 43.745L1.78675 43.0421ZM10.6065 37.0924L10.2212 36.1696L10.2211 36.1696L10.6065 37.0924ZM31.4695 37.0924L31.8549 36.1696L31.8548 36.1696L31.4695 37.0924ZM40.2892 43.0421L39.5779 43.745L40.285 44.4605L40.9963 43.7492L40.2892 43.0421ZM42.075 41.2564L42.7821 41.9635L43.4868 41.2587L42.7844 40.5516L42.075 41.2564ZM32.431 34.7776L32.0467 35.7008L32.0468 35.7008L32.431 34.7776ZM9.64515 34.7776L10.0294 35.7008L10.0294 35.7008L9.64515 34.7776ZM0.00124991 41.2564L-0.623082 42.0375L0.0781243 42.598L0.710724 41.9611L0.00124991 41.2564ZM6.50064 49.1702L8.29361 50.9632L9.70784 49.549L7.91486 47.756L6.50064 49.1702ZM9.71397 50.957C11.1915 49.4535 12.9538 48.2592 14.8977 47.4441L14.1244 45.5997C11.9354 46.5175 9.95117 47.8622 8.28748 49.5552L9.71397 50.957ZM14.8978 47.4441C16.8417 46.6289 18.9287 46.2091 21.0367 46.2091V44.2091C18.6632 44.2091 16.3132 44.6818 14.1244 45.5997L14.8978 47.4441ZM21.0367 46.2091C23.1447 46.2091 25.2318 46.6289 27.1758 47.4441L27.9492 45.5997C25.7602 44.6818 23.4102 44.2091 21.0367 44.2091V46.2091ZM27.1758 47.4441C29.1198 48.2592 30.882 49.4535 32.3595 50.957L33.786 49.5552C32.1224 47.8622 30.1381 46.5175 27.9492 45.5997L27.1758 47.4441ZM33.7799 50.9632L35.5729 49.1699L34.1586 47.7558L32.3656 49.5491L33.7799 50.9632ZM35.5751 47.758C33.6704 45.841 31.4051 44.3195 28.9101 43.2814L28.1418 45.1279C30.3933 46.0647 32.4375 47.4377 34.1563 49.1677L35.5751 47.758ZM28.9101 43.2813C26.4149 42.2432 23.7394 41.7086 21.0367 41.7086V43.7086C23.4756 43.7086 25.89 44.191 28.1418 45.1279L28.9101 43.2813ZM21.0367 41.7086C18.3343 41.7086 15.6584 42.2432 13.1634 43.2813L13.9317 45.1279C16.1833 44.191 18.5981 43.7086 21.0367 43.7086V41.7086ZM13.1634 43.2813C10.6683 44.3195 8.40313 45.841 6.49838 47.758L7.91712 49.1677C9.63602 47.4377 11.6801 46.0647 13.9317 45.1279L13.1634 43.2813ZM6.20775 48.4629V48.4631H8.20775V48.4629H6.20775ZM13.7309 56.4005L15.4794 58.149L16.8936 56.7348L15.1451 54.9863L13.7309 56.4005ZM16.8973 58.1452C17.4389 57.5978 18.0835 57.1632 18.7939 56.8667L18.0235 55.021C17.0689 55.4195 16.203 56.0034 15.4756 56.7385L16.8973 58.1452ZM18.7939 56.8667C19.5043 56.5702 20.2666 56.4176 21.0365 56.4176V54.4176C20.0024 54.4176 18.9782 54.6225 18.0235 55.021L18.7939 56.8667ZM21.0365 56.4176C21.8066 56.4176 22.5687 56.5702 23.279 56.8667L24.0494 55.021C23.0948 54.6225 22.0708 54.4176 21.0365 54.4176V56.4176ZM23.279 56.8667C23.9894 57.1632 24.634 57.5978 25.1756 58.1452L26.5973 56.7385C25.8699 56.0034 25.004 55.4195 24.0494 55.021L23.279 56.8667ZM26.5936 58.1489L28.3419 56.4004L26.9276 54.9863L25.1793 56.7348L26.5936 58.1489ZM28.3496 54.9941C27.3971 54.0202 26.2594 53.246 25.0033 52.7176L24.2277 54.5611C25.2381 54.9862 26.1534 55.609 26.9198 56.3926L28.3496 54.9941ZM25.0033 52.7176C23.7472 52.1892 22.3986 51.9171 21.036 51.9171V53.9171C22.1323 53.9171 23.2172 54.136 24.2277 54.5611L25.0033 52.7176ZM21.036 51.9171C19.6736 51.9171 18.3247 52.1892 17.0687 52.7176L17.8443 54.5611C18.8547 54.136 19.9399 53.9171 21.036 53.9171V51.9171ZM17.0687 52.7176C15.8126 53.2461 14.675 54.0202 13.7224 54.9941L15.1521 56.3926C15.9187 55.609 16.8339 54.9862 17.8443 54.5611L17.0687 52.7176ZM14.4373 56.6934H14.438V54.6934H14.4373V56.6934ZM-0.707107 41.9625L1.07964 43.7492L2.49386 42.335L0.707107 40.5483L-0.707107 41.9625ZM2.49802 43.745C4.92235 41.2919 7.80941 39.3444 10.9919 38.0151L10.2211 36.1696C6.79444 37.6009 3.68585 39.6978 1.07548 42.3392L2.49802 43.745ZM10.9919 38.0151C14.1744 36.6861 17.589 36.0016 21.038 36.0016V34.0016C17.3244 34.0016 13.6478 34.7386 10.2212 36.1696L10.9919 38.0151ZM21.038 36.0016C24.4869 36.0016 27.9017 36.6861 31.0841 38.0151L31.8548 36.1696C28.4283 34.7386 24.7515 34.0016 21.038 34.0016V36.0016ZM31.0841 38.0151C34.2665 39.3444 37.1537 41.2919 39.5779 43.745L41.0005 42.3392C38.3902 39.6978 35.2815 37.6009 31.8549 36.1696L31.0841 38.0151ZM40.9963 43.7492L42.7821 41.9635L41.3679 40.5493L39.5821 42.335L40.9963 43.7492ZM42.7844 40.5516C39.9355 37.6835 36.5474 35.4075 32.8152 33.8543L32.0468 35.7008C35.5355 37.1527 38.7025 39.2802 41.3655 41.9611L42.7844 40.5516ZM32.8152 33.8543C29.0832 32.3011 25.0806 31.5015 21.0382 31.5015V33.5015C24.8168 33.5015 28.5583 34.2489 32.0467 35.7008L32.8152 33.8543ZM21.0382 31.5015C16.9956 31.5015 12.9931 32.3011 9.26092 33.8543L10.0294 35.7008C13.518 34.2489 17.2594 33.5015 21.0382 33.5015V31.5015ZM9.26093 33.8543C5.52876 35.4075 2.14069 37.6835 -0.708225 40.5516L0.710724 41.9611C3.37371 39.2802 6.5407 37.1527 10.0294 35.7008L9.26093 33.8543ZM0.625581 40.4752L0.624332 40.4742L-0.624332 42.0365L-0.623082 42.0375L0.625581 40.4752Z" fill="#FEC110" mask="url(#path-2-inside-1_17_4209)"></path>
  </symbol>
  <symbol  xmlns="http://www.w3.org/2000/svg" viewBox="0 0 60 61" id="adv4">
    <path d="M56.648 12.4863L59.7052 10.2906C59.4995 9.31347 59.1472 8.37309 58.6602 7.50134C58.149 6.64354 57.511 5.86809 56.7675 5.20134L53.3375 6.75134L53.3105 6.73609L52.9383 2.99084C51.0343 2.33834 48.9673 2.33834 47.0633 2.99084L46.6895 6.73634L46.6625 6.75134L43.2325 5.20134C42.4893 5.86819 41.851 6.64362 41.3398 7.50134C40.8528 8.37299 40.5005 9.31329 40.2948 10.2903L43.352 12.4861V12.5163L40.2948 14.7121C40.5005 15.6892 40.8528 16.6296 41.3398 17.5013C41.851 18.3591 42.4893 19.1345 43.2325 19.8013L46.6625 18.2513L46.6895 18.2663L47.0617 22.0118C48.9657 22.6643 51.0328 22.6643 52.9368 22.0118L53.3098 18.2666L53.3375 18.2513L56.7675 19.8013C57.5108 19.1344 58.1487 18.359 58.6602 17.5013C59.1472 16.6298 59.4995 15.6895 59.7052 14.7126L56.648 12.5163V12.4863ZM57.541 15.4663C57.2725 16.2291 56.8645 16.9354 56.338 17.5493L54.109 16.5426L53.209 16.1623L52.377 16.6408L51.5415 17.1213L51.4463 18.0803L51.2035 20.5143C50.4087 20.6634 49.5933 20.6634 48.7985 20.5143L48.5558 18.0803L48.4342 17.1053L47.5978 16.6263L46.7658 16.1478L45.8908 16.5431L43.6618 17.5501C43.1353 16.9362 42.7273 16.2298 42.4588 15.4668L44.4455 14.0398L45.2268 13.4486V11.5243L44.4455 10.9631L42.4588 9.53634C42.7273 8.77342 43.1353 8.06702 43.6618 7.45309L45.8908 8.46009L46.7968 8.84234L47.631 8.35759L48.46 7.87634L48.5548 6.92259L48.7975 4.48859C49.5923 4.33991 50.4078 4.33991 51.2025 4.48859L51.4453 6.92259L51.5675 7.89959L52.406 8.37959L53.2373 8.85459L54.109 8.46059L56.338 7.45384C56.8648 8.06762 57.2725 8.77394 57.541 9.53684L55.5543 10.9638L54.773 11.5551V13.4786L55.5543 14.0398L57.541 15.4663ZM50 10.6263C49.6292 10.6263 49.2668 10.7363 48.9583 10.9423C48.65 11.1484 48.4098 11.4412 48.2678 11.7838C48.1258 12.1264 48.0888 12.5034 48.161 12.8671C48.2335 13.2308 48.412 13.5649 48.6742 13.8272C48.9365 14.0894 49.2705 14.268 49.6343 14.3403C49.998 14.4127 50.375 14.3755 50.7175 14.2336C51.0603 14.0917 51.353 13.8514 51.559 13.543C51.765 13.2347 51.875 12.8722 51.875 12.5013C51.875 12.0041 51.6775 11.5271 51.3258 11.1755C50.9743 10.8239 50.4972 10.6263 50 10.6263ZM15.9028 39.6707C15.2396 39.671 14.5914 39.8675 14.04 40.236C13.4887 40.6045 13.0589 41.1282 12.8052 41.741C12.5515 42.3535 12.4851 43.0277 12.6145 43.6782C12.7439 44.3285 13.0633 44.926 13.5322 45.395C14.0011 45.8637 14.5986 46.183 15.249 46.3125C15.8994 46.4417 16.5736 46.3755 17.1862 46.1215C17.7989 45.8677 18.3226 45.438 18.691 44.8867C19.0594 44.3352 19.256 43.687 19.256 43.0237C19.2561 42.5835 19.1694 42.1475 19.0009 41.7407C18.8323 41.3337 18.5853 40.9642 18.274 40.6527C17.9626 40.3415 17.5929 40.0945 17.186 39.926C16.7792 39.7575 16.3431 39.6707 15.9028 39.6707ZM15.9028 44.3767C15.6352 44.3767 15.3736 44.2975 15.1511 44.1487C14.9286 44.0002 14.7552 43.7887 14.6528 43.5417C14.5504 43.2945 14.5236 43.0222 14.5758 42.76C14.628 42.4975 14.7569 42.2562 14.9461 42.0672C15.1353 41.878 15.3764 41.749 15.6388 41.6967C15.9013 41.6447 16.1733 41.6715 16.4206 41.7737C16.6678 41.8762 16.8791 42.0497 17.0278 42.2722C17.1764 42.4947 17.2558 42.7562 17.2558 43.0237C17.2552 43.3825 17.1124 43.7262 16.8588 43.9797C16.6052 44.2332 16.2614 44.376 15.9028 44.3762V44.3767ZM37.1833 39.6707C36.52 39.6707 35.8718 39.8675 35.3205 40.2357C34.769 40.6042 34.3393 41.128 34.0853 41.7405C33.8315 42.3532 33.765 43.0275 33.8945 43.6777C34.0238 44.3282 34.343 44.9257 34.812 45.3947C35.281 45.8637 35.8783 46.183 36.5288 46.3125C37.1793 46.4417 37.8535 46.3755 38.466 46.1217C39.0788 45.868 39.6025 45.4382 39.971 44.8867C40.3393 44.3352 40.536 43.687 40.536 43.0237C40.536 42.1347 40.1828 41.282 39.554 40.653C38.9253 40.0242 38.0725 39.671 37.1833 39.6707ZM37.1833 44.3767C36.9158 44.3767 36.6543 44.2975 36.4318 44.1487C36.2093 44 36.0358 43.7887 35.9335 43.5415C35.831 43.2942 35.8043 43.0222 35.8565 42.7597C35.9088 42.4972 36.0378 42.2562 36.227 42.067C36.4163 41.8777 36.6573 41.749 36.9198 41.6967C37.182 41.6447 37.4543 41.6715 37.7013 41.774C37.9485 41.8762 38.1598 42.0497 38.3085 42.2722C38.4573 42.4947 38.5365 42.7562 38.5365 43.0237C38.536 43.3825 38.3933 43.7262 38.1395 43.98C37.8858 44.2335 37.542 44.376 37.1833 44.3762V44.3767ZM42.6715 26.0862C42.416 25.1337 41.8748 24.2822 41.1205 23.6465C40.3663 23.0109 39.4355 22.6217 38.4533 22.5313C38.3063 22.5116 37.9768 22.5013 37.825 22.5013H15.263C15.1283 22.5013 14.813 22.5093 14.682 22.5251C13.6904 22.6063 12.7481 22.9921 11.9843 23.6296C11.2204 24.2671 10.6723 25.1252 10.415 26.0862C10.0978 27.2612 9.83653 28.4485 9.57653 29.6362H3.57178V35.2247L8.35953 36.8872C8.02853 39.579 7.84225 42.2862 7.80153 44.9977C7.79553 45.3185 7.79303 46.1277 7.79303 46.4477V54.8347C7.79303 55.0515 7.8357 55.266 7.91863 55.4662C8.00155 55.6665 8.12308 55.8485 8.2763 56.0015C8.42953 56.1547 8.61143 56.2762 8.8116 56.3592C9.01178 56.4422 9.22635 56.4847 9.44303 56.4847H13.2203C13.437 56.4847 13.6515 56.4422 13.8517 56.3592C14.0519 56.2762 14.2338 56.1547 14.387 56.0015C14.5402 55.8485 14.6618 55.6665 14.7447 55.4662C14.8276 55.266 14.8703 55.0515 14.8703 54.8347V52.5012H38.2163V54.8355C38.2163 55.2732 38.39 55.693 38.6995 56.0022C39.009 56.3117 39.4288 56.4855 39.8663 56.4855H43.6438C44.0815 56.4855 44.501 56.3117 44.8105 56.0022C45.12 55.693 45.2938 55.2732 45.2938 54.8355V46.448C45.2938 46.132 45.2912 45.328 45.2857 45.012C45.2455 42.2957 45.059 39.5835 44.7272 36.887L49.515 35.2247V29.636H43.5095C43.25 28.4485 42.9883 27.2612 42.6715 26.0862ZM8.65603 34.608L5.82153 33.624V31.886H9.11978C8.95003 32.791 8.79203 33.6975 8.65603 34.608ZM12.8283 26.737C12.9519 26.2737 13.2158 25.8597 13.5838 25.552C13.9518 25.2442 14.406 25.058 14.884 25.0182L15.2638 25.0013H37.825C37.9043 25.0013 38.0643 25.0037 38.163 25.0135C38.6463 25.0502 39.1065 25.2347 39.4813 25.5425C39.8558 25.85 40.1265 26.2655 40.2565 26.7322C40.9818 29.4487 41.5505 32.2047 41.9595 34.9862H11.1268C11.5358 32.2062 12.1039 29.452 12.8283 26.737ZM40.548 54.1532L40.536 50.0012H12.55L12.5378 54.1532H10.293C10.293 54.1532 10.2968 45.3075 10.3015 45.0427C10.3407 42.461 10.516 39.883 10.8265 37.3195H42.259C42.5698 39.8812 42.745 42.4577 42.784 45.0377L42.7913 54.1532H40.548ZM47.2645 31.886V33.624L44.43 34.6082C44.2937 33.6977 44.1357 32.791 43.966 31.886H47.2645Z" fill="#FEC110"></path>
  </symbol>
  <symbol  xmlns="http://www.w3.org/2000/svg" viewBox="0 0 24 24" id="arr">
    <path d="M17 7L7 17M17 7H8M17 7V16" stroke-width="1.5" stroke-linecap="round" stroke-linejoin="round"></path>
  </symbol>
  <symbol  xmlns="http://www.w3.org/2000/svg" viewBox="0 0 24 24" id="arrowL">
    <path d="M5 12H19M5 12L11 18M5 12L11 6"  stroke-width="1.5" stroke-linecap="round" stroke-linejoin="round"></path>
  </symbol>
  <symbol  xmlns="http://www.w3.org/2000/svg" viewBox="0 0 24 24" id="arrowR">
    <path d="M5 12H19M19 12L13 18M19 12L13 6"  stroke-width="1.5" stroke-linecap="round" stroke-linejoin="round"></path>
  </symbol>
  <symbol  xmlns="http://www.w3.org/2000/svg" viewBox="0 0 24 25" id="checkMark">
    <path d="M5 12.0015L10 17.0015L20 7.00146"  stroke-width="1.5" stroke-linecap="round" stroke-linejoin="round"></path>
  </symbol>
  <symbol  xmlns="http://www.w3.org/2000/svg" viewBox="0 0 36 24" id="burger">
    <path d="M3 12H27M3 6H33M3 18H33"  stroke-width="1.5" stroke-miterlimit="10" stroke-linecap="round"></path>
  </symbol>
  <symbol  xmlns="http://www.w3.org/2000/svg" viewBox="0 0 8 14" id="chevron">
    <path d="M1 1.00146L7 7.00146L1 13.0015"  stroke-width="1.5" stroke-linecap="round" stroke-linejoin="round"></path>
  </symbol>
  <symbol  xmlns="http://www.w3.org/2000/svg" viewBox="0 0 60 60" id="inst">
    <circle cx="30" cy="30" r="29.5" ></circle>
    <path d="M34 22H26C23.7909 22 22 23.7909 22 26V34C22 36.2091 23.7909 38 26 38H34C36.2091 38 38 36.2091 38 34V26C38 23.7909 36.2091 22 34 22Z"  stroke-width="1.5" stroke-linecap="round" stroke-linejoin="round"></path>
    <path d="M30 33C31.6569 33 33 31.6569 33 30C33 28.3431 31.6569 27 30 27C28.3431 27 27 28.3431 27 30C27 31.6569 28.3431 33 30 33Z"  stroke-width="1.5" stroke-linecap="round" stroke-linejoin="round"></path>
  </symbol>
  <symbol  xmlns="http://www.w3.org/2000/svg" viewBox="0 0 164 60" id="Logo">
    <path d="M60 38.5824L63.2675 22.2022H67.076L70.3227 38.5824H67.1385L66.5349 34.9828H63.871L63.2258 38.5824H60ZM64.1832 32.9403H66.2019L65.1822 26.3276L64.1832 32.9403Z" fill="#2C2C2C"></path>
    <path d="M72.031 38.5824V22.2022H76.2975C77.0328 22.2022 77.7127 22.2629 78.337 22.3842C78.9614 22.5056 79.5094 22.7213 79.9812 23.0313C80.4668 23.3414 80.8345 23.7728 81.0842 24.3256C81.3478 24.8648 81.4796 25.5726 81.4796 26.4489C81.4796 27.1095 81.3825 27.6758 81.1883 28.1476C80.994 28.606 80.7165 28.97 80.3558 29.2396C79.9951 29.5093 79.5511 29.6913 79.0238 29.7856C79.6759 29.88 80.224 30.0957 80.668 30.4328C81.112 30.7698 81.445 31.2147 81.6669 31.7674C81.8889 32.3202 81.9999 32.9875 81.9999 33.7695C81.9999 34.5918 81.8889 35.3064 81.6669 35.913C81.4588 36.5197 81.1466 37.0185 80.7304 37.4095C80.3142 37.8005 79.8008 38.0971 79.1903 38.2993C78.5799 38.488 77.8722 38.5824 77.0675 38.5824H72.031ZM75.465 36.2366H76.4224C77.2826 36.2366 77.8722 36.0276 78.1914 35.6097C78.5244 35.1918 78.6908 34.5649 78.6908 33.729C78.6908 33.0819 78.6145 32.5696 78.4619 32.1921C78.3093 31.8011 78.0596 31.518 77.7127 31.3428C77.3797 31.154 76.9288 31.0597 76.3599 31.0597H75.465V36.2366ZM75.465 28.815H76.3183C76.9149 28.815 77.3658 28.7341 77.6711 28.5723C77.9763 28.397 78.1844 28.1409 78.2954 27.8038C78.4203 27.4533 78.4827 27.0286 78.4827 26.5298C78.4827 26.031 78.3925 25.6333 78.2122 25.3367C78.0457 25.0266 77.7821 24.8042 77.4213 24.6694C77.0745 24.5345 76.6305 24.4671 76.0894 24.4671H75.465V28.815Z" fill="#2C2C2C"></path>
    <path d="M85.5633 38.5824V24.6896H82.9618V22.2022H91.5779V24.6896H89.0181V38.5824H85.5633Z" fill="#2C2C2C"></path>
    <path d="M97.8106 38.8049C96.5758 38.8049 95.5976 38.5891 94.8761 38.1577C94.1547 37.7263 93.6344 37.1129 93.3153 36.3175C93.01 35.5086 92.8574 34.5447 92.8574 33.4257V27.3185C92.8574 26.1995 93.01 25.2423 93.3153 24.4469C93.6344 23.6515 94.1547 23.0448 94.8761 22.6269C95.5976 22.209 96.5758 22 97.8106 22C99.0593 22 100.044 22.2157 100.766 22.6471C101.501 23.065 102.022 23.6717 102.327 24.4671C102.646 25.2491 102.805 26.1995 102.805 27.3185V33.4257C102.805 34.5447 102.646 35.5086 102.327 36.3175C102.022 37.1129 101.501 37.7263 100.766 38.1577C100.044 38.5891 99.0593 38.8049 97.8106 38.8049ZM97.8106 36.3984C98.2546 36.3984 98.5806 36.304 98.7888 36.1153C98.9969 35.913 99.1356 35.6501 99.205 35.3266C99.2744 34.9895 99.3091 34.6323 99.3091 34.2548V26.5096C99.3091 26.1321 99.2744 25.7816 99.205 25.458C99.1356 25.1345 98.9969 24.8783 98.7888 24.6896C98.5806 24.4874 98.2546 24.3862 97.8106 24.3862C97.3944 24.3862 97.0822 24.4874 96.8741 24.6896C96.666 24.8783 96.5272 25.1345 96.4578 25.458C96.3885 25.7816 96.3538 26.1321 96.3538 26.5096V34.2548C96.3538 34.6323 96.3815 34.9895 96.437 35.3266C96.5064 35.6501 96.6451 35.913 96.8533 36.1153C97.0614 36.304 97.3805 36.3984 97.8106 36.3984Z" fill="#2C2C2C"></path>
    <path d="M114.859 42L114.443 38.5824H105.14V22.2022H108.574V36.3175H111.821V22.2022H115.255V36.3175H117.398V42H114.859Z" fill="#2C2C2C"></path>
    <path d="M119.081 38.5824V22.2022H126.428V24.5076H122.515V28.8554H125.533V31.181H122.515V36.3175H126.47V38.5824H119.081Z" fill="#2C2C2C"></path>
    <path d="M128.248 38.5824V22.2022H131.682V28.9363H134.659V22.2022H138.092V38.5824H134.659V31.3225H131.682V38.5824H128.248Z" fill="#2C2C2C"></path>
    <path d="M142.268 38.5824V24.6896H139.666V22.2022H148.282V24.6896H145.722V38.5824H142.268Z" fill="#2C2C2C"></path>
    <path d="M149.811 38.5824V22.2022H155.16C156.173 22.2022 156.998 22.391 157.637 22.7685C158.275 23.1325 158.747 23.665 159.052 24.366C159.371 25.0671 159.53 25.9164 159.53 26.9141C159.53 28.087 159.322 29.0037 158.906 29.6643C158.504 30.3249 157.949 30.7968 157.241 31.0799C156.534 31.3495 155.722 31.4843 154.806 31.4843H153.245V38.5824H149.811ZM153.245 29.1385H154.452C154.952 29.1385 155.333 29.0644 155.597 28.9161C155.875 28.7543 156.062 28.5049 156.159 28.1678C156.256 27.8308 156.305 27.3994 156.305 26.8736C156.305 26.3748 156.263 25.9569 156.18 25.6198C156.11 25.2828 155.944 25.0199 155.68 24.8311C155.417 24.6424 155 24.548 154.432 24.548H153.245V29.1385Z" fill="#2C2C2C"></path>
    <path d="M161.003 38.5824V35.6097H164V38.5824H161.003Z" fill="#2C2C2C"></path>
    <circle cx="25" cy="30" r="25" fill="#FEC110"></circle>
    <g clip-path="url(#clip0_11_538)">
      <path d="M-42.2953 29.1966V22.5906L-43.2831 19.9358L-41.9249 20.3062L-40.6284 22.5905L-35.9979 23.0844L-32.4788 22.5905C-32.4788 22.5905 -18.2167 15.7375 -3.95582 15.7375C3.51458 15.7375 7.58357 16.1448 11.3924 17.4787C13.3431 18.1641 15.2264 19.0839 17.4676 20.3187L17.4682 20.3243C19.3945 21.3864 21.5803 22.6829 24.2968 24.245L24.8893 24.5848C25.087 24.7021 25.2909 24.8131 25.4942 24.9304C25.8029 25.1093 34.3845 25.0538 40.8671 26.1034C47.3496 27.1529 51.486 29.7459 51.486 29.7459L52.3504 31.8451L53.153 32.5859L52.5356 38.6364L54.2025 40.7355H43.157V35.1854C43.157 30.6847 39.5082 27.0297 35.0013 27.0297C30.4944 27.0297 26.8457 30.6785 26.8457 35.1854V40.7355H-11.7359V35.1854C-11.7359 30.6847 -15.3847 27.0297 -19.8916 27.0297C-24.3923 27.0297 -28.0473 30.6785 -28.0473 35.1854V39.5874L-43.9697 36.9757V30.6783L-42.2953 29.1966ZM20.9073 37.1609C21.395 37.1609 21.8272 36.846 21.988 36.3832L23.7909 30.9808C23.902 30.641 23.723 30.2705 23.3775 30.1533C23.3095 30.1284 23.2415 30.1222 23.1736 30.1222L22.0991 30.1227L20.1235 37.1609L20.9073 37.1609ZM-2.96693 25.2454L18.5801 26.1097V23.702C18.5801 23.702 11.1714 18.3308 4.1327 18.3308H-4.2019L-2.96693 25.2454ZM-20.1306 24.875H-7.35014V18.3307C-12.4744 18.3307 -21.427 22.2202 -21.427 22.2202L-20.1306 24.875Z" fill="#2C2C2C"></path>
      <path d="M38.0101 35.191L38.6456 35.2035V35.1848C38.6456 34.7096 38.5527 34.24 38.3738 33.7954L37.1203 34.3142C37.2313 34.5861 37.2931 34.8823 37.2931 35.1786V35.191L38.0101 35.191Z" fill="#2C2C2C"></path>
      <path d="M37.114 36.061C36.9967 36.3391 36.8302 36.5918 36.6201 36.8019L37.5773 37.7648C37.9172 37.4249 38.1822 37.0239 38.3674 36.5855L37.114 36.061Z" fill="#2C2C2C"></path>
      <path d="M36.6195 33.5727L37.5824 32.6155C37.2426 32.2756 36.8478 32.0043 36.4031 31.8191L35.8781 33.0725C36.1568 33.1904 36.4094 33.3631 36.6195 33.5727Z" fill="#2C2C2C"></path>
      <path d="M35.0028 37.469V38.8272C35.478 38.8272 35.9538 38.7343 36.3922 38.5491L35.8733 37.2957C35.5958 37.4135 35.299 37.469 35.0028 37.469Z" fill="#2C2C2C"></path>
      <path d="M33.4585 35.1851C33.4585 36.0376 34.1496 36.7286 35.0021 36.7286C35.8545 36.7286 36.5456 36.0376 36.5456 35.1851C36.5456 34.3326 35.8546 33.6416 35.0021 33.6416C34.1496 33.6416 33.4585 34.3326 33.4585 35.1851Z" fill="#2C2C2C"></path>
      <path d="M35.0028 32.9H35.009V31.5417H35.0028C34.5276 31.5417 34.058 31.6346 33.6196 31.8136L34.1385 33.0733C34.4103 32.9555 34.7066 32.9 35.0028 32.9Z" fill="#2C2C2C"></path>
      <path d="M33.3846 36.8018L32.4217 37.759C32.7615 38.0988 33.1625 38.3639 33.6009 38.5491L34.1198 37.2957C33.8479 37.1784 33.6009 37.0119 33.3846 36.8018Z" fill="#2C2C2C"></path>
      <path d="M32.4349 32.5984C32.095 32.932 31.8237 33.333 31.6385 33.7776L32.892 34.3027C33.0092 34.0246 33.1757 33.7776 33.3921 33.5618L32.4349 32.5984Z" fill="#2C2C2C"></path>
      <path d="M32.7176 35.1721H31.3594V35.1846C31.3594 35.6598 31.4523 36.1356 31.6375 36.5796L32.8909 36.0608C32.7737 35.7827 32.7182 35.4865 32.7182 35.1902L32.7176 35.1721Z" fill="#2C2C2C"></path>
      <path d="M35.0028 27.7756C39.0962 27.7756 42.4114 31.0908 42.4114 35.1843C42.4114 39.2776 39.0963 42.5929 35.0028 42.5929C30.9093 42.5929 27.5942 39.2778 27.5942 35.1843C27.5942 31.0909 30.9093 27.7756 35.0028 27.7756ZM35.0028 39.2589C37.2565 39.2589 39.0776 37.4374 39.0776 35.1841C39.0776 32.9304 37.2561 31.1093 35.0028 31.1093C32.7491 31.1093 30.928 32.9308 30.928 35.1841C30.928 37.4379 32.7495 39.2589 35.0028 39.2589Z" fill="#2C2C2C"></path>
      <path d="M38.0101 35.191L38.6456 35.2035V35.1848C38.6456 34.7096 38.5527 34.24 38.3738 33.7954L37.1203 34.3142C37.2313 34.5861 37.2931 34.8823 37.2931 35.1786V35.191L38.0101 35.191Z" fill="#2C2C2C"></path>
      <path d="M37.114 36.061C36.9967 36.3391 36.8302 36.5918 36.6201 36.8019L37.5773 37.7648C37.9172 37.4249 38.1822 37.0239 38.3674 36.5855L37.114 36.061Z" fill="#2C2C2C"></path>
      <path d="M36.6195 33.5727L37.5824 32.6155C37.2426 32.2756 36.8478 32.0043 36.4031 31.8191L35.8781 33.0725C36.1568 33.1904 36.4094 33.3631 36.6195 33.5727Z" fill="#2C2C2C"></path>
      <path d="M35.0028 37.469V38.8272C35.478 38.8272 35.9538 38.7343 36.3922 38.5491L35.8733 37.2957C35.5958 37.4135 35.299 37.469 35.0028 37.469Z" fill="#2C2C2C"></path>
      <path d="M33.4585 35.1851C33.4585 36.0376 34.1496 36.7286 35.0021 36.7286C35.8545 36.7286 36.5456 36.0376 36.5456 35.1851C36.5456 34.3326 35.8546 33.6416 35.0021 33.6416C34.1496 33.6416 33.4585 34.3326 33.4585 35.1851Z" fill="#2C2C2C"></path>
      <path d="M35.0028 32.9H35.009V31.5417H35.0028C34.5276 31.5417 34.058 31.6346 33.6196 31.8136L34.1385 33.0733C34.4103 32.9555 34.7066 32.9 35.0028 32.9Z" fill="#2C2C2C"></path>
      <path d="M33.3846 36.8018L32.4217 37.759C32.7615 38.0988 33.1625 38.3639 33.6009 38.5491L34.1198 37.2957C33.8479 37.1784 33.6009 37.0119 33.3846 36.8018Z" fill="#2C2C2C"></path>
      <path d="M32.8974 34.3021C33.0146 34.024 33.1812 33.7771 33.3975 33.5613L32.4403 32.5984C32.1004 32.932 31.8292 33.333 31.6439 33.7776L32.8974 34.3021Z" fill="#2C2C2C"></path>
      <path d="M31.3604 35.1721V35.1846C31.3604 35.6598 31.4533 36.1356 31.6385 36.5796L32.892 36.0608C32.7747 35.7827 32.7192 35.4865 32.7192 35.1902V35.1778H31.3604V35.1721Z" fill="#2C2C2C"></path>
      <path d="M33.4585 35.1851C33.4585 36.0376 34.1496 36.7286 35.0021 36.7286C35.8545 36.7286 36.5456 36.0376 36.5456 35.1851C36.5456 34.3326 35.8546 33.6416 35.0021 33.6416C34.1496 33.6416 33.4585 34.3326 33.4585 35.1851Z" fill="#2C2C2C"></path>
      <path d="M35.0028 37.469C35.299 37.469 35.5958 37.4135 35.8733 37.2957L36.3922 38.5491C35.9538 38.7281 35.4785 38.8272 35.0028 38.8272V37.469ZM33.3846 36.8018C33.5947 37.0119 33.8485 37.1851 34.126 37.2961L33.6072 38.5496C33.1688 38.3643 32.7678 38.0987 32.428 37.7594L33.3846 36.8018ZM37.114 36.061L38.3674 36.5855C38.1822 37.0239 37.9172 37.4249 37.5773 37.7648L36.6201 36.8019C36.8302 36.5918 36.9967 36.3391 37.114 36.061ZM32.7186 35.1851C32.7186 35.4876 32.7741 35.7838 32.8914 36.0557L31.6379 36.5745C31.4527 36.1299 31.3598 35.6609 31.3598 35.1794V35.167L32.7186 35.1664V35.1851ZM38.3742 33.802C38.5532 34.2403 38.6461 34.7156 38.6461 35.1913V35.21L38.01 35.1976L37.2873 35.197V35.1845C37.2873 34.8883 37.2318 34.5977 37.1145 34.3202L38.3742 33.802ZM32.4349 32.5984L33.3921 33.5607C33.1757 33.7708 33.0092 34.024 32.8919 34.3015L31.6385 33.7765C31.8294 33.3386 32.095 32.9382 32.4349 32.5984ZM36.4048 31.8263C36.8432 32.0115 37.2442 32.2834 37.5841 32.6227L36.6212 33.5799C36.411 33.3698 36.1578 33.197 35.8803 33.0798L36.4048 31.8263ZM35.0028 31.5417H35.009V32.9H35.0028C34.7066 32.9 34.4103 32.9555 34.1385 33.0733L33.6196 31.8136C34.058 31.6346 34.5276 31.5417 35.0028 31.5417Z" fill="#2C2C2C"></path>
      <path d="M-16.8782 35.191L-16.2421 35.2035V35.1848C-16.2421 34.7096 -16.335 34.24 -16.514 33.7954L-17.7674 34.3142C-17.6564 34.5861 -17.5947 34.8823 -17.5947 35.1786V35.191L-16.8782 35.191Z" fill="#2C2C2C"></path>
      <path d="M-17.7729 36.061C-17.8901 36.3391 -18.0566 36.5918 -18.273 36.8019L-17.3158 37.7648C-16.9759 37.4249 -16.7108 37.0239 -16.5256 36.5855L-17.7729 36.061Z" fill="#2C2C2C"></path>
      <path d="M-18.2659 33.5727L-17.303 32.6155C-17.6428 32.2756 -18.0376 32.0043 -18.4822 31.8191L-19.0073 33.0725C-18.7292 33.1904 -18.476 33.3631 -18.2659 33.5727Z" fill="#2C2C2C"></path>
      <path d="M-19.8841 37.469L-19.8903 38.8272H-19.8841C-19.4089 38.8272 -18.9331 38.7343 -18.4947 38.5491L-19.0135 37.2957C-19.2916 37.4135 -19.5878 37.469 -19.8841 37.469Z" fill="#2C2C2C"></path>
      <path d="M-21.4283 35.1851C-21.4283 36.0376 -20.7373 36.7286 -19.8848 36.7286C-19.0323 36.7286 -18.3412 36.0376 -18.3412 35.1851C-18.3412 34.3326 -19.0323 33.6416 -19.8848 33.6416C-20.7373 33.6416 -21.4283 34.3326 -21.4283 35.1851Z" fill="#2C2C2C"></path>
      <path d="M-19.884 32.9H-19.8716V31.5417H-19.884C-20.3592 31.5417 -20.8288 31.6346 -21.2672 31.8136L-20.7546 33.0733C-20.4765 32.9555 -20.1803 32.9 -19.884 32.9Z" fill="#2C2C2C"></path>
      <path d="M-21.5023 36.8018L-22.4651 37.759C-22.1253 38.0988 -21.7243 38.3639 -21.2859 38.5491L-20.7671 37.2957C-21.0389 37.1784 -21.2859 37.0119 -21.5023 36.8018Z" fill="#2C2C2C"></path>
      <path d="M-22.452 32.5984C-22.7919 32.932 -23.0632 33.333 -23.2484 33.7776L-21.9949 34.3027C-21.8777 34.0246 -21.7111 33.7776 -21.4948 33.5618L-22.452 32.5984Z" fill="#2C2C2C"></path>
      <path d="M-22.1678 35.1721H-23.526V35.1846C-23.526 35.6598 -23.4331 36.1356 -23.2479 36.5796L-21.9945 36.0608C-22.1117 35.7827 -22.1673 35.4865 -22.1673 35.1902L-22.1678 35.1721Z" fill="#2C2C2C"></path>
      <path d="M-19.8841 27.7756C-15.7907 27.7756 -12.4754 31.0908 -12.4754 35.1843C-12.4754 39.2776 -15.7906 42.5929 -19.8841 42.5929C-23.9775 42.5929 -27.2927 39.2778 -27.2927 35.1843C-27.2927 31.0909 -23.9775 27.7756 -19.8841 27.7756ZM-19.8841 39.2589C-17.6303 39.2589 -15.8093 37.4374 -15.8093 35.1841C-15.8093 32.9304 -17.6308 31.1093 -19.8841 31.1093C-22.1378 31.1093 -23.9588 32.9308 -23.9588 35.1841C-23.9588 37.4379 -22.1378 39.2589 -19.8841 39.2589Z" fill="#2C2C2C"></path>
      <path d="M-16.8782 35.191L-16.2421 35.2035V35.1848C-16.2421 34.7096 -16.335 34.24 -16.514 33.7954L-17.7674 34.3142C-17.6564 34.5861 -17.5947 34.8823 -17.5947 35.1786V35.191L-16.8782 35.191Z" fill="#2C2C2C"></path>
      <path d="M-17.7729 36.061C-17.8901 36.3391 -18.0566 36.5918 -18.273 36.8019L-17.3158 37.7648C-16.9759 37.4249 -16.7108 37.0239 -16.5256 36.5855L-17.7729 36.061Z" fill="#2C2C2C"></path>
      <path d="M-18.2659 33.5727L-17.303 32.6155C-17.6428 32.2756 -18.0376 32.0043 -18.4822 31.8191L-19.0073 33.0725C-18.7292 33.1904 -18.476 33.3631 -18.2659 33.5727Z" fill="#2C2C2C"></path>
      <path d="M-19.8841 37.469L-19.8903 38.8272H-19.8841C-19.4089 38.8272 -18.9331 38.7343 -18.4947 38.5491L-19.0135 37.2957C-19.2916 37.4135 -19.5878 37.469 -19.8841 37.469Z" fill="#2C2C2C"></path>
      <path d="M-21.4283 35.1851C-21.4283 36.0376 -20.7373 36.7286 -19.8848 36.7286C-19.0323 36.7286 -18.3412 36.0376 -18.3412 35.1851C-18.3412 34.3326 -19.0323 33.6416 -19.8848 33.6416C-20.7373 33.6416 -21.4283 34.3326 -21.4283 35.1851Z" fill="#2C2C2C"></path>
      <path d="M-19.884 32.9H-19.8716V31.5417H-19.884C-20.3592 31.5417 -20.8288 31.6346 -21.2672 31.8136L-20.7546 33.0733C-20.4765 32.9555 -20.1803 32.9 -19.884 32.9Z" fill="#2C2C2C"></path>
      <path d="M-21.5023 36.8018L-22.4651 37.759C-22.1253 38.0988 -21.7243 38.3639 -21.2859 38.5491L-20.7671 37.2957C-21.0389 37.1784 -21.2859 37.0119 -21.5023 36.8018Z" fill="#2C2C2C"></path>
      <path d="M-21.9894 34.3021C-21.8722 34.024 -21.7057 33.7771 -21.4893 33.5613L-22.4465 32.5984C-22.7864 32.932 -23.0577 33.333 -23.2429 33.7776L-21.9894 34.3021Z" fill="#2C2C2C"></path>
      <path d="M-23.526 35.1721V35.1846C-23.526 35.6598 -23.4331 36.1356 -23.2479 36.5796L-21.9945 36.0608C-22.1117 35.7827 -22.1673 35.4865 -22.1673 35.1902L-22.1677 35.1778H-23.5265L-23.526 35.1721Z" fill="#2C2C2C"></path>
      <path d="M-21.4283 35.1851C-21.4283 36.0376 -20.7373 36.7286 -19.8848 36.7286C-19.0323 36.7286 -18.3412 36.0376 -18.3412 35.1851C-18.3412 34.3326 -19.0323 33.6416 -19.8848 33.6416C-20.7373 33.6416 -21.4283 34.3326 -21.4283 35.1851Z" fill="#2C2C2C"></path>
      <path d="M-19.8841 37.469C-19.5878 37.469 -19.2916 37.4135 -19.0135 37.2957L-18.4947 38.5491C-18.9331 38.7281 -19.4083 38.8272 -19.8841 38.8272H-19.8903L-19.8841 37.469ZM-21.5023 36.8018C-21.2921 37.0119 -21.0384 37.1851 -20.7608 37.2961L-21.2796 38.5496C-21.718 38.3643 -22.1191 38.0987 -22.4589 37.7594L-21.5023 36.8018ZM-17.7729 36.061L-16.519 36.5864C-16.7042 37.0248 -16.9698 37.4258 -17.3091 37.7657L-18.2663 36.8028C-18.0562 36.5926 -17.8901 36.3391 -17.7729 36.061ZM-22.1678 35.1721L-22.1682 35.1851C-22.1682 35.4876 -22.1127 35.7838 -21.9955 36.0557L-23.2489 36.5745C-23.4342 36.1299 -23.5271 35.6609 -23.5271 35.1794V35.167L-22.1682 35.1664L-22.1678 35.1721ZM-16.5127 33.802C-16.3337 34.2403 -16.2408 34.7156 -16.2408 35.1913V35.21L-16.8769 35.1976H-17.599V35.1851C-17.599 34.8889 -17.6545 34.5983 -17.7718 34.3208L-16.5127 33.802ZM-22.452 32.5984L-21.4948 33.5607C-21.7111 33.7708 -21.8777 34.024 -21.9949 34.3015L-23.2484 33.7765C-23.0575 33.3386 -22.7919 32.9382 -22.452 32.5984ZM-18.4826 31.8263C-18.0442 32.0115 -17.6432 32.2834 -17.3034 32.6227L-18.2663 33.5799C-18.4764 33.3698 -18.7296 33.197 -19.0071 33.0798L-18.4826 31.8263ZM-19.884 31.5417H-19.8716V32.9H-19.884C-20.1803 32.9 -20.4765 32.9555 -20.7546 33.0733L-21.2672 31.8136C-20.8288 31.6346 -20.3592 31.5417 -19.884 31.5417Z" fill="#2C2C2C"></path>
    </g>
    <defs>
      <clipPath id="clip0_11_538">
        <rect y="5" width="50" height="50" rx="25" fill="white"></rect>
      </clipPath>
    </defs>
  </symbol>
  <symbol  xmlns="http://www.w3.org/2000/svg" viewBox="0 0 80 80" id="pin">
    <circle cx="40" cy="40" r="40" fill="#FEC110"></circle>
    <rect width="24" height="24" transform="translate(28 28)" fill="#FEC110"></rect>
    <path d="M40 42C41.6569 42 43 40.6569 43 39C43 37.3431 41.6569 36 40 36C38.3431 36 37 37.3431 37 39C37 40.6569 38.3431 42 40 42Z" stroke="#2C2C2C" stroke-width="1.5" stroke-linecap="round" stroke-linejoin="round"></path>
    <path d="M45.657 44.657L41.414 48.9C41.039 49.2746 40.5306 49.485 40.0005 49.485C39.4704 49.485 38.962 49.2746 38.587 48.9L34.343 44.657C33.2242 43.5381 32.4623 42.1127 32.1537 40.5608C31.845 39.009 32.0035 37.4005 32.609 35.9387C33.2145 34.4769 34.2399 33.2275 35.5555 32.3485C36.8711 31.4694 38.4178 31.0002 40 31.0002C41.5822 31.0002 43.1289 31.4694 44.4445 32.3485C45.7601 33.2275 46.7855 34.4769 47.391 35.9387C47.9965 37.4005 48.155 39.009 47.8463 40.5608C47.5377 42.1127 46.7758 43.5381 45.657 44.657Z" stroke="#2C2C2C" stroke-width="1.5" stroke-linecap="round" stroke-linejoin="round"></path>
  </symbol>
  <symbol  xmlns="http://www.w3.org/2000/svg" viewBox="0 0 182 61" id="Persona">
    <circle cx="30" cy="30.0029" r="30" fill="white"></circle>
    <path d="M24.168 36.8519C24.4155 36.0282 24.9219 35.3061 25.6122 34.7929C26.3025 34.2797 27.1398 34.0027 28 34.0029H32C32.8612 34.0026 33.6996 34.2803 34.3904 34.7947C35.0811 35.3091 35.5874 36.0327 35.834 36.8579M39 30.0029C39 34.9735 34.9706 39.0029 30 39.0029C25.0294 39.0029 21 34.9735 21 30.0029C21 25.0324 25.0294 21.0029 30 21.0029C34.9706 21.0029 39 25.0324 39 30.0029ZM33 28.0029C33 29.6598 31.6569 31.0029 30 31.0029C28.3431 31.0029 27 29.6598 27 28.0029C27 26.3461 28.3431 25.0029 30 25.0029C31.6569 25.0029 33 26.3461 33 28.0029Z" stroke="#2C2C2C" stroke-width="1.5" stroke-linecap="round" stroke-linejoin="round"></path>
    <path d="M78.271 10.3438H78.3223C79.1562 9.36621 80.2329 8.87744 81.5522 8.87744C82.5024 8.87744 83.333 9.10645 84.0439 9.56445C84.7617 10.0225 85.312 10.6719 85.6948 11.5127C86.0845 12.3467 86.2793 13.3105 86.2793 14.4043C86.2793 15.6279 86.0674 16.6807 85.6436 17.5625C85.2266 18.4443 84.6489 19.1143 83.9106 19.5723C83.1792 20.0303 82.3452 20.2593 81.4087 20.2593C80.7251 20.2593 80.103 20.1226 79.5425 19.8491C78.9888 19.5688 78.5376 19.1655 78.189 18.6392H78.1479V20.0029H76.4253V4.9707H78.271V10.3438ZM81.3677 10.3848C80.7319 10.3848 80.168 10.5557 79.6758 10.8975C79.1836 11.2393 78.8008 11.7212 78.5273 12.3433C78.2607 12.9585 78.1274 13.6694 78.1274 14.4761C78.1274 15.8569 78.3975 16.9131 78.9375 17.6445C79.4775 18.376 80.2671 18.7417 81.3062 18.7417C81.9282 18.7417 82.4683 18.5742 82.9263 18.2393C83.3911 17.9043 83.75 17.4224 84.0029 16.7935C84.2559 16.1577 84.3823 15.4092 84.3823 14.5479C84.3823 13.6934 84.2627 12.9551 84.0234 12.333C83.7842 11.7041 83.439 11.2222 82.9878 10.8872C82.5366 10.5522 81.9966 10.3848 81.3677 10.3848ZM90.0376 16.2397C90.0376 17.0327 90.2324 17.6343 90.622 18.0444C91.0185 18.4546 91.5825 18.6597 92.3139 18.6597C92.9223 18.6597 93.4521 18.5229 93.9033 18.2495C94.3613 17.9761 94.6928 17.6069 94.8979 17.1421C95.103 16.6772 95.2055 16.0278 95.2055 15.1938V9.12354H97.0512V20.0029H95.3286V18.4956C94.9389 19.0698 94.4604 19.5073 93.893 19.8081C93.3325 20.1089 92.7036 20.2593 92.0063 20.2593C90.7417 20.2593 89.788 19.9346 89.1455 19.2852C88.5097 18.6289 88.1919 17.6958 88.1919 16.4858V9.12354H90.0376V16.2397ZM101.835 9.12354H103.896V10.5488H101.835V17.1421C101.835 17.5454 101.869 17.8462 101.937 18.0444C102.013 18.2427 102.122 18.376 102.266 18.4443C102.409 18.5059 102.607 18.5366 102.86 18.5366C103.106 18.5366 103.452 18.4922 103.896 18.4033L104.142 19.9414C103.616 20.0645 103.086 20.126 102.553 20.126C101.89 20.126 101.377 20.0303 101.015 19.8389C100.659 19.6406 100.396 19.3501 100.225 18.9673C100.068 18.5981 99.9892 17.9316 99.9892 16.9678V10.5488H98.4306V9.12354H99.9892V6.62158L101.835 5.29883V9.12354ZM109.09 15.3989C109.302 15.9868 109.452 16.4346 109.541 16.7422C109.637 17.0498 109.746 17.4497 109.869 17.9419H109.91C110.047 17.3335 110.153 16.9028 110.228 16.6499C110.31 16.3901 110.498 15.8569 110.792 15.0503L112.955 9.12354H114.832L110.423 20.813C110.067 21.7563 109.725 22.4844 109.397 22.9971C109.069 23.5166 108.717 23.8823 108.341 24.0942C107.965 24.3062 107.517 24.4121 106.998 24.4121C106.807 24.4121 106.557 24.3882 106.249 24.3403C105.942 24.2993 105.679 24.2549 105.46 24.207L105.839 22.6484C106.126 22.7578 106.403 22.8125 106.67 22.8125C107.066 22.8125 107.391 22.7134 107.644 22.5151C107.904 22.3169 108.112 22.0503 108.269 21.7153C108.433 21.3872 108.584 21.042 108.721 20.6797C108.857 20.3174 108.939 20.0986 108.967 20.0234L104.834 9.12354H106.824L109.09 15.3989ZM118.057 20.0029H116.211V4.9707H118.057V20.0029ZM127.147 20.0029H125.302V8.30322C124.844 8.76123 124.29 9.18164 123.64 9.56445C122.998 9.94727 122.318 10.2686 121.6 10.5283V8.74414C122.612 8.26562 123.511 7.68457 124.297 7.00098C125.083 6.31738 125.633 5.64062 125.948 4.9707H127.147V20.0029ZM139.201 20.0029V12.8867C139.201 12.0938 139.003 11.4922 138.606 11.082C138.21 10.6719 137.649 10.4668 136.925 10.4668C136.009 10.4668 135.294 10.7437 134.782 11.2974C134.276 11.8511 134.023 12.7329 134.023 13.9429V20.0029H132.177V9.12354H133.9V10.6411C134.262 10.0942 134.73 9.66357 135.304 9.34912C135.886 9.03467 136.528 8.87744 137.232 8.87744C138.49 8.87744 139.44 9.20215 140.083 9.85156C140.725 10.501 141.047 11.4307 141.047 12.6406V20.0029H139.201ZM152.834 22.6279H142.129V21.582H152.834V22.6279ZM155.792 7.0625H153.946V4.9707H155.792V7.0625ZM155.792 20.0029H153.946V9.12354H155.792V20.0029Z" fill="white"></path>
    <path d="M77.1396 37.8135H82.0684V39.0029H75.4307C75.4307 38.4242 75.6221 37.859 76.0049 37.3076C76.3923 36.7516 76.9847 36.1432 77.7822 35.4824L78.582 34.8193C79.3431 34.1859 79.8991 33.6208 80.25 33.124C80.6055 32.6273 80.7832 32.151 80.7832 31.6953C80.7832 31.3717 80.7012 31.0801 80.5371 30.8203C80.373 30.5605 80.1475 30.3577 79.8604 30.2119C79.5732 30.0615 79.252 29.9863 78.8965 29.9863C78.3086 29.9863 77.8438 30.1595 77.502 30.5059C77.1602 30.8477 76.971 31.3512 76.9346 32.0166L75.6562 31.8184C75.7155 31.2305 75.8841 30.7246 76.1621 30.3008C76.4447 29.8724 76.8206 29.5465 77.29 29.3232C77.7594 29.0954 78.3018 28.9814 78.917 28.9814C79.5505 28.9814 80.1019 29.1022 80.5713 29.3438C81.0452 29.5853 81.4076 29.9157 81.6582 30.335C81.9134 30.7497 82.041 31.2122 82.041 31.7227C82.041 32.3516 81.8268 32.9714 81.3984 33.582C80.9746 34.1927 80.3411 34.8467 79.498 35.5439L78.5684 36.3164C78.2129 36.6172 77.9235 36.8792 77.7002 37.1025C77.4769 37.3213 77.29 37.5583 77.1396 37.8135ZM89.9775 36.0908C89.9775 36.6969 89.8363 37.2347 89.5537 37.7041C89.2712 38.1689 88.877 38.5312 88.3711 38.791C87.8698 39.0462 87.2933 39.1738 86.6416 39.1738C86.0719 39.1738 85.5547 39.0622 85.0898 38.8389C84.625 38.611 84.2445 38.2874 83.9482 37.8682C83.6566 37.4443 83.4766 36.9499 83.4082 36.3848L84.6387 36.1865C84.7708 36.8473 85.0055 37.3418 85.3428 37.6699C85.6846 37.998 86.1175 38.1621 86.6416 38.1621C87.029 38.1621 87.3753 38.0755 87.6807 37.9023C87.9906 37.7246 88.2298 37.4808 88.3984 37.1709C88.5716 36.8564 88.6582 36.5055 88.6582 36.1182C88.6582 35.7308 88.5785 35.3958 88.4189 35.1133C88.2594 34.8262 88.0339 34.6051 87.7422 34.4502C87.4551 34.2952 87.1224 34.2178 86.7441 34.2178H85.6777L85.8281 33.2197H86.0674C86.8376 33.2197 87.4095 33.0762 87.7832 32.7891C88.1615 32.502 88.3506 32.0895 88.3506 31.5518C88.3506 31.0641 88.2002 30.6813 87.8994 30.4033C87.5986 30.1253 87.1885 29.9863 86.6689 29.9863C86.1631 29.9863 85.7415 30.1481 85.4043 30.4717C85.0716 30.7907 84.8597 31.235 84.7686 31.8047L83.5176 31.6133C83.6133 31.071 83.8047 30.6038 84.0918 30.2119C84.3789 29.8154 84.7435 29.5124 85.1855 29.3027C85.6276 29.0885 86.1198 28.9814 86.6621 28.9814C87.2546 28.9814 87.7718 29.0863 88.2139 29.2959C88.6605 29.5055 89.0046 29.8018 89.2461 30.1846C89.4876 30.5674 89.6084 31.0117 89.6084 31.5176C89.6084 31.9824 89.474 32.4017 89.2051 32.7754C88.9362 33.1445 88.5671 33.418 88.0977 33.5957V33.6299C88.4805 33.7165 88.8132 33.876 89.0957 34.1084C89.3783 34.3363 89.5947 34.6211 89.7451 34.9629C89.9001 35.3047 89.9775 35.6807 89.9775 36.0908ZM96.6357 31.75H101.216V37.9912H102.269V41.3955H101.065V39.0029H95.7266V41.3955H94.5234V37.9912H95.3096C95.82 37.0433 96.1686 36.0726 96.3555 35.0791C96.5423 34.0856 96.6357 32.9759 96.6357 31.75ZM99.9854 32.7617H97.8047C97.7591 34.8353 97.374 36.5785 96.6494 37.9912H99.9854V32.7617ZM106.459 38.1621C106.924 38.1621 107.325 38.0254 107.662 37.752C108.004 37.4785 108.241 37.1162 108.373 36.665L109.576 36.8496C109.371 37.5833 108.986 38.1553 108.421 38.5654C107.86 38.971 107.186 39.1738 106.397 39.1738C105.705 39.1738 105.101 39.0212 104.586 38.7158C104.076 38.4105 103.681 37.9775 103.403 37.417C103.125 36.8519 102.986 36.1911 102.986 35.4346C102.986 34.6553 103.123 33.9762 103.396 33.3975C103.67 32.8187 104.062 32.3721 104.572 32.0576C105.087 31.7432 105.691 31.5859 106.384 31.5859C107.054 31.5859 107.637 31.7363 108.134 32.0371C108.631 32.3333 109.013 32.7708 109.282 33.3496C109.551 33.9284 109.686 34.6234 109.686 35.4346V35.6875H104.258C104.285 36.207 104.392 36.6536 104.579 37.0273C104.766 37.3965 105.019 37.679 105.338 37.875C105.661 38.0664 106.035 38.1621 106.459 38.1621ZM106.37 32.5908C106.006 32.5908 105.677 32.6774 105.386 32.8506C105.094 33.0238 104.853 33.2676 104.661 33.582C104.474 33.8965 104.354 34.2611 104.299 34.6758H108.387C108.314 34.0059 108.102 33.4909 107.751 33.1309C107.405 32.7708 106.944 32.5908 106.37 32.5908ZM112.345 31.75V34.7715C112.614 34.7715 112.823 34.735 112.974 34.6621C113.124 34.5846 113.24 34.4798 113.322 34.3477C113.409 34.2155 113.521 34.0013 113.657 33.7051L114.04 32.8643C114.172 32.5726 114.304 32.3493 114.437 32.1943C114.573 32.0394 114.737 31.9277 114.929 31.8594C115.12 31.7865 115.373 31.75 115.688 31.75H116.228V32.7617H115.879C115.719 32.7617 115.596 32.7731 115.51 32.7959C115.428 32.8187 115.35 32.8711 115.277 32.9531C115.204 33.0352 115.129 33.1673 115.052 33.3496L114.689 34.1699C114.557 34.4707 114.421 34.7008 114.279 34.8604C114.143 35.0199 113.947 35.1543 113.691 35.2637C113.974 35.3229 114.211 35.4368 114.402 35.6055C114.598 35.7695 114.785 36.002 114.963 36.3027L116.549 39.0029H115.141L113.849 36.6992C113.698 36.4349 113.557 36.2344 113.425 36.0977C113.293 35.9609 113.142 35.8652 112.974 35.8105C112.81 35.7513 112.6 35.7217 112.345 35.7217V39.0029H111.114V31.75H112.345ZM123.433 39.0029H122.147C122.075 38.848 122.024 38.7227 121.997 38.627C121.97 38.5312 121.936 38.3581 121.895 38.1074C121.544 38.4811 121.172 38.7523 120.78 38.9209C120.388 39.0895 119.939 39.1738 119.434 39.1738C118.978 39.1738 118.575 39.0872 118.224 38.9141C117.877 38.7363 117.608 38.4902 117.417 38.1758C117.23 37.8568 117.137 37.4922 117.137 37.082C117.137 36.4577 117.34 35.9609 117.745 35.5918C118.151 35.2227 118.818 34.9674 119.748 34.8262C120.714 34.6803 121.402 34.5413 121.812 34.4092V34.2178C121.812 33.8122 121.76 33.4932 121.655 33.2607C121.55 33.0238 121.382 32.8529 121.149 32.748C120.922 32.6432 120.612 32.5908 120.22 32.5908C119.728 32.5908 119.338 32.7025 119.051 32.9258C118.768 33.1491 118.581 33.5 118.49 33.9785L117.287 33.7939C117.433 33.0602 117.759 32.5088 118.265 32.1396C118.775 31.7705 119.45 31.5859 120.288 31.5859C120.931 31.5859 121.452 31.668 121.854 31.832C122.255 31.9915 122.553 32.2559 122.749 32.625C122.945 32.9896 123.043 33.4818 123.043 34.1016V36.7061C123.043 37.1572 123.052 37.5059 123.07 37.752C123.093 37.998 123.13 38.21 123.18 38.3877C123.234 38.5654 123.319 38.7705 123.433 39.0029ZM119.803 35.8584C119.315 35.945 118.957 36.0885 118.729 36.2891C118.506 36.4896 118.395 36.7539 118.395 37.082C118.395 37.4329 118.506 37.7087 118.729 37.9092C118.957 38.1051 119.283 38.2031 119.707 38.2031C120.062 38.2031 120.434 38.0892 120.821 37.8613C121.09 37.7018 121.293 37.5309 121.43 37.3486C121.571 37.1618 121.669 36.9362 121.724 36.6719C121.783 36.4076 121.812 36.0635 121.812 35.6396V35.3799C121.703 35.43 121.455 35.5007 121.067 35.5918C120.685 35.6829 120.263 35.7718 119.803 35.8584ZM127.855 32.7754C127.459 32.7754 127.101 32.8734 126.782 33.0693C126.468 33.2607 126.219 33.5365 126.037 33.8965C125.855 34.2565 125.764 34.6735 125.764 35.1475C125.764 36.1592 125.951 36.9157 126.324 37.417C126.702 37.9137 127.215 38.1621 127.862 38.1621C128.282 38.1621 128.653 38.0596 128.977 37.8545C129.3 37.6494 129.553 37.3441 129.735 36.9385C129.922 36.5329 130.016 36.0384 130.016 35.4551C130.016 34.8991 129.924 34.4206 129.742 34.0195C129.564 33.6139 129.312 33.3063 128.983 33.0967C128.66 32.8825 128.284 32.7754 127.855 32.7754ZM127.917 31.7637C128.596 31.7637 129.186 31.9118 129.688 32.208C130.193 32.4997 130.583 32.9235 130.856 33.4795C131.134 34.0309 131.273 34.6872 131.273 35.4482C131.273 36.223 131.134 36.8906 130.856 37.4512C130.583 38.0072 130.189 38.4333 129.674 38.7295C129.163 39.0257 128.562 39.1738 127.869 39.1738C126.734 39.1738 125.889 38.7933 125.333 38.0322C124.782 37.2712 124.506 36.1022 124.506 34.5254C124.506 32.625 124.793 31.2259 125.367 30.3281C125.941 29.4303 126.805 28.9814 127.958 28.9814H129.592C129.806 28.9814 129.918 28.888 129.927 28.7012H130.925C130.925 29.125 130.82 29.4463 130.61 29.665C130.405 29.8838 130.084 29.9932 129.646 29.9932H127.999C127.284 29.9932 126.743 30.2279 126.379 30.6973C126.014 31.1667 125.793 31.873 125.716 32.8164H125.75C125.987 32.4837 126.297 32.2262 126.68 32.0439C127.062 31.8571 127.475 31.7637 127.917 31.7637ZM133.994 38.1758H133.96V41.7783H132.729V31.75H133.878V32.6729H133.905C134.156 32.3219 134.461 32.0531 134.821 31.8662C135.186 31.6794 135.601 31.5859 136.065 31.5859C136.717 31.5859 137.287 31.7409 137.774 32.0508C138.262 32.3607 138.638 32.8027 138.902 33.377C139.167 33.9466 139.299 34.6143 139.299 35.3799C139.299 36.1364 139.169 36.8018 138.909 37.376C138.649 37.9456 138.283 38.3877 137.809 38.7021C137.335 39.0166 136.785 39.1738 136.161 39.1738C135.254 39.1738 134.532 38.8411 133.994 38.1758ZM135.956 32.5908C135.537 32.5908 135.17 32.707 134.855 32.9395C134.541 33.1719 134.299 33.4909 134.131 33.8965C133.962 34.3021 133.878 34.7601 133.878 35.2705C133.878 35.8721 133.965 36.3893 134.138 36.8223C134.315 37.2552 134.564 37.5879 134.883 37.8203C135.206 38.0482 135.585 38.1621 136.018 38.1621C136.441 38.1621 136.804 38.0436 137.104 37.8066C137.41 37.5697 137.64 37.2415 137.795 36.8223C137.954 36.403 138.034 35.9199 138.034 35.373C138.034 34.7943 137.948 34.2952 137.774 33.876C137.601 33.4567 137.357 33.1377 137.043 32.9189C136.733 32.7002 136.371 32.5908 135.956 32.5908ZM142.771 37L141.418 39.0029H139.982L141.479 36.8086C141.675 36.5306 141.849 36.321 141.999 36.1797C142.154 36.0339 142.313 35.9404 142.478 35.8994C141.83 35.8265 141.34 35.6077 141.008 35.2432C140.68 34.8786 140.516 34.416 140.516 33.8555C140.516 33.181 140.737 32.6615 141.179 32.2969C141.625 31.9323 142.313 31.75 143.243 31.75H145.827V39.0029H144.597V36.0566H144.207C144.002 36.0566 143.829 36.0794 143.688 36.125C143.551 36.1706 143.41 36.2617 143.264 36.3984C143.118 36.5306 142.954 36.7311 142.771 37ZM144.597 32.7617H143.229C142.705 32.7617 142.332 32.8551 142.108 33.042C141.885 33.2288 141.773 33.5068 141.773 33.876C141.773 34.2588 141.894 34.5505 142.136 34.751C142.377 34.9469 142.797 35.0449 143.394 35.0449H144.597V32.7617ZM152.772 37.8135H157.701V39.0029H151.063C151.063 38.4242 151.255 37.859 151.638 37.3076C152.025 36.7516 152.618 36.1432 153.415 35.4824L154.215 34.8193C154.976 34.1859 155.532 33.6208 155.883 33.124C156.238 32.6273 156.416 32.151 156.416 31.6953C156.416 31.3717 156.334 31.0801 156.17 30.8203C156.006 30.5605 155.78 30.3577 155.493 30.2119C155.206 30.0615 154.885 29.9863 154.529 29.9863C153.941 29.9863 153.477 30.1595 153.135 30.5059C152.793 30.8477 152.604 31.3512 152.567 32.0166L151.289 31.8184C151.348 31.2305 151.517 30.7246 151.795 30.3008C152.077 29.8724 152.453 29.5465 152.923 29.3232C153.392 29.0954 153.935 28.9814 154.55 28.9814C155.183 28.9814 155.735 29.1022 156.204 29.3438C156.678 29.5853 157.04 29.9157 157.291 30.335C157.546 30.7497 157.674 31.2122 157.674 31.7227C157.674 32.3516 157.46 32.9714 157.031 33.582C156.607 34.1927 155.974 34.8467 155.131 35.5439L154.201 36.3164C153.846 36.6172 153.556 36.8792 153.333 37.1025C153.11 37.3213 152.923 37.5583 152.772 37.8135ZM159.062 34.0947C159.062 33.042 159.153 32.1602 159.335 31.4492C159.517 30.7337 159.845 30.1436 160.319 29.6787C160.793 29.2139 161.461 28.9814 162.322 28.9814C163.407 28.9814 164.223 29.387 164.77 30.1982C165.316 31.0094 165.59 32.3014 165.59 34.0742C165.59 35.7604 165.326 37.0319 164.797 37.8887C164.273 38.7454 163.448 39.1738 162.322 39.1738C161.142 39.1738 160.303 38.7318 159.807 37.8477C159.31 36.9635 159.062 35.7126 159.062 34.0947ZM162.302 29.9932C161.851 29.9932 161.481 30.1253 161.194 30.3896C160.907 30.6494 160.691 31.0801 160.545 31.6816C160.399 32.2786 160.326 33.0807 160.326 34.0879C160.326 35.0905 160.397 35.8903 160.538 36.4873C160.679 37.0798 160.894 37.5081 161.181 37.7725C161.472 38.0322 161.853 38.1621 162.322 38.1621C162.787 38.1621 163.165 38.0322 163.457 37.7725C163.749 37.5081 163.965 37.0798 164.106 36.4873C164.252 35.8903 164.325 35.0905 164.325 34.0879C164.325 33.0807 164.25 32.2786 164.1 31.6816C163.954 31.0801 163.733 30.6494 163.437 30.3896C163.145 30.1253 162.767 29.9932 162.302 29.9932ZM168.358 37.8135H173.287V39.0029H166.649C166.649 38.4242 166.841 37.859 167.224 37.3076C167.611 36.7516 168.203 36.1432 169.001 35.4824L169.801 34.8193C170.562 34.1859 171.118 33.6208 171.469 33.124C171.824 32.6273 172.002 32.151 172.002 31.6953C172.002 31.3717 171.92 31.0801 171.756 30.8203C171.592 30.5605 171.366 30.3577 171.079 30.2119C170.792 30.0615 170.471 29.9863 170.115 29.9863C169.527 29.9863 169.062 30.1595 168.721 30.5059C168.379 30.8477 168.19 31.3512 168.153 32.0166L166.875 31.8184C166.934 31.2305 167.103 30.7246 167.381 30.3008C167.663 29.8724 168.039 29.5465 168.509 29.3232C168.978 29.0954 169.521 28.9814 170.136 28.9814C170.769 28.9814 171.321 29.1022 171.79 29.3438C172.264 29.5853 172.626 29.9157 172.877 30.335C173.132 30.7497 173.26 31.2122 173.26 31.7227C173.26 32.3516 173.046 32.9714 172.617 33.582C172.193 34.1927 171.56 34.8467 170.717 35.5439L169.787 36.3164C169.432 36.6172 169.142 36.8792 168.919 37.1025C168.696 37.3213 168.509 37.5583 168.358 37.8135ZM174.647 34.0947C174.647 33.042 174.739 32.1602 174.921 31.4492C175.103 30.7337 175.431 30.1436 175.905 29.6787C176.379 29.2139 177.047 28.9814 177.908 28.9814C178.993 28.9814 179.809 29.387 180.355 30.1982C180.902 31.0094 181.176 32.3014 181.176 34.0742C181.176 35.7604 180.911 37.0319 180.383 37.8887C179.859 38.7454 179.034 39.1738 177.908 39.1738C176.728 39.1738 175.889 38.7318 175.393 37.8477C174.896 36.9635 174.647 35.7126 174.647 34.0947ZM177.888 29.9932C177.437 29.9932 177.067 30.1253 176.78 30.3896C176.493 30.6494 176.277 31.0801 176.131 31.6816C175.985 32.2786 175.912 33.0807 175.912 34.0879C175.912 35.0905 175.983 35.8903 176.124 36.4873C176.265 37.0798 176.479 37.5081 176.767 37.7725C177.058 38.0322 177.439 38.1621 177.908 38.1621C178.373 38.1621 178.751 38.0322 179.043 37.7725C179.335 37.5081 179.551 37.0798 179.692 36.4873C179.838 35.8903 179.911 35.0905 179.911 34.0879C179.911 33.0807 179.836 32.2786 179.686 31.6816C179.54 31.0801 179.319 30.6494 179.022 30.3896C178.731 30.1253 178.353 29.9932 177.888 29.9932Z" fill="#989898"></path>
    <g clip-path="url(#clip0_11_445)">
      <path fill-rule="evenodd" clip-rule="evenodd" d="M82.9954 45.0043C83.1223 45.0043 83.2382 45.0763 83.2943 45.1901L85.2741 49.2015L89.7006 49.8431C89.8262 49.8613 89.9306 49.9492 89.9698 50.07C90.009 50.1907 89.9762 50.3233 89.8853 50.4118L86.6776 53.5341L87.434 57.9432C87.4554 58.0684 87.404 58.1948 87.3012 58.2694C87.1985 58.3439 87.0623 58.3537 86.95 58.2945L82.9999 56.213L79.0406 58.2946C78.9283 58.3537 78.7922 58.3439 78.6895 58.2693C78.5869 58.1947 78.5355 58.0683 78.5569 57.9432L79.3132 53.5341L76.1056 50.4118C76.0146 50.3233 75.9819 50.1907 76.0211 50.07C76.0603 49.9492 76.1647 49.8613 76.2903 49.8431L80.7168 49.2015L82.6965 45.1901C82.7527 45.0763 82.8686 45.0043 82.9954 45.0043Z" fill="#FEC110" stroke="#FEC110" stroke-linecap="round" stroke-linejoin="round"></path>
    </g>
    <g clip-path="url(#clip1_11_445)">
      <path fill-rule="evenodd" clip-rule="evenodd" d="M103.995 45.0043C104.122 45.0043 104.238 45.0763 104.294 45.1901L106.274 49.2015L110.701 49.8431C110.826 49.8613 110.931 49.9492 110.97 50.07C111.009 50.1907 110.976 50.3233 110.885 50.4118L107.678 53.5341L108.434 57.9432C108.455 58.0684 108.404 58.1948 108.301 58.2694C108.199 58.3439 108.062 58.3537 107.95 58.2945L104 56.213L100.041 58.2946C99.9283 58.3537 99.7922 58.3439 99.6895 58.2693C99.5869 58.1947 99.5355 58.0683 99.5569 57.9432L100.313 53.5341L97.1056 50.4118C97.0146 50.3233 96.9819 50.1907 97.0211 50.07C97.0603 49.9492 97.1647 49.8613 97.2903 49.8431L101.717 49.2015L103.697 45.1901C103.753 45.0763 103.869 45.0043 103.995 45.0043Z" fill="#FEC110" stroke="#FEC110" stroke-linecap="round" stroke-linejoin="round"></path>
    </g>
    <g clip-path="url(#clip2_11_445)">
      <path fill-rule="evenodd" clip-rule="evenodd" d="M124.995 45.0043C125.122 45.0043 125.238 45.0763 125.294 45.1901L127.274 49.2015L131.701 49.8431C131.826 49.8613 131.931 49.9492 131.97 50.07C132.009 50.1907 131.976 50.3233 131.885 50.4118L128.678 53.5341L129.434 57.9432C129.455 58.0684 129.404 58.1948 129.301 58.2694C129.199 58.3439 129.062 58.3537 128.95 58.2945L125 56.213L121.041 58.2946C120.928 58.3537 120.792 58.3439 120.69 58.2693C120.587 58.1947 120.535 58.0683 120.557 57.9432L121.313 53.5341L118.106 50.4118C118.015 50.3233 117.982 50.1907 118.021 50.07C118.06 49.9492 118.165 49.8613 118.29 49.8431L122.717 49.2015L124.697 45.1901C124.753 45.0763 124.869 45.0043 124.995 45.0043Z" fill="#FEC110" stroke="#FEC110" stroke-linecap="round" stroke-linejoin="round"></path>
    </g>
    <g clip-path="url(#clip3_11_445)">
      <path fill-rule="evenodd" clip-rule="evenodd" d="M145.995 45.0043C146.122 45.0043 146.238 45.0763 146.294 45.1901L148.274 49.2015L152.701 49.8431C152.826 49.8613 152.931 49.9492 152.97 50.07C153.009 50.1907 152.976 50.3233 152.885 50.4118L149.678 53.5341L150.434 57.9432C150.455 58.0684 150.404 58.1948 150.301 58.2694C150.199 58.3439 150.062 58.3537 149.95 58.2945L146 56.213L142.041 58.2946C141.928 58.3537 141.792 58.3439 141.69 58.2693C141.587 58.1947 141.535 58.0683 141.557 57.9432L142.313 53.5341L139.106 50.4118C139.015 50.3233 138.982 50.1907 139.021 50.07C139.06 49.9492 139.165 49.8613 139.29 49.8431L143.717 49.2015L145.697 45.1901C145.753 45.0763 145.869 45.0043 145.995 45.0043Z" fill="#FEC110" stroke="#FEC110" stroke-linecap="round" stroke-linejoin="round"></path>
    </g>
    <g clip-path="url(#clip4_11_445)">
      <path d="M167 55.8363L162.885 57.9996L163.671 53.4176L160.338 50.173L164.938 49.5063L166.995 45.3376L169.053 49.5063L173.653 50.173L170.319 53.4176L171.105 57.9996L167 55.8363Z" stroke="#989898" stroke-width="1.5" stroke-linecap="round" stroke-linejoin="round"></path>
    </g>
    <defs>
      <clipPath id="clip0_11_445">
        <rect width="16" height="16" fill="white" transform="translate(75 44.0029)"></rect>
      </clipPath>
      <clipPath id="clip1_11_445">
        <rect width="16" height="16" fill="white" transform="translate(96 44.0029)"></rect>
      </clipPath>
      <clipPath id="clip2_11_445">
        <rect width="16" height="16" fill="white" transform="translate(117 44.0029)"></rect>
      </clipPath>
      <clipPath id="clip3_11_445">
        <rect width="16" height="16" fill="white" transform="translate(138 44.0029)"></rect>
      </clipPath>
      <clipPath id="clip4_11_445">
        <rect width="16" height="16" fill="white" transform="translate(159 44.0029)"></rect>
      </clipPath>
    </defs>
  </symbol>
  <symbol  xmlns="http://www.w3.org/2000/svg" viewBox="0 0 40 41" id="roundButton">
    <circle cx="20" cy="20.0015" r="20" fill="#FEC110"></circle>
    <path d="M18 14.0015L24 20.0015L18 26.0015" stroke="#2C2C2C" stroke-width="1.5" stroke-linecap="round" stroke-linejoin="round"></path>
  </symbol>
  <symbol  xmlns="http://www.w3.org/2000/svg" viewBox="0 0 60 60" id="twitter">
    <circle cx="30" cy="30" r="29.5" ></circle>
    <path d="M40 22.01C39 22.5 38.02 22.699 37 23C35.879 21.735 34.217 21.665 32.62 22.263C31.023 22.861 29.977 24.323 30 26V27C26.755 27.083 23.865 25.605 22 23C22 23 17.818 30.433 26 34C24.128 35.247 22.261 36.088 20 36C23.308 37.803 26.913 38.423 30.034 37.517C33.614 36.477 36.556 33.794 37.685 29.775C38.0218 28.5527 38.189 27.2899 38.182 26.022C38.18 25.773 39.692 23.25 40 22.009V22.01Z"  stroke-width="1.5" stroke-linecap="round" stroke-linejoin="round"></path>
  </symbol>
  <symbol  xmlns="http://www.w3.org/2000/svg" viewBox="0 0 60 60" id="vk">
    <circle cx="30" cy="30" r="29.5" ></circle>
    <path d="M29.2517 32.1644V25.3843H30.1524V28.8253V29.9386L31.2594 29.8195C32.4672 29.6896 33.5825 28.9635 34.4438 28.0565C35.1496 27.3132 35.7471 26.3854 36.141 25.3843H37.0126C36.3225 27.1775 34.9185 28.5163 33.8786 29.1175L32.2208 30.076L33.9547 30.8887C35.0028 31.3801 36.6201 32.5645 37.5729 34.616H36.4982C35.5829 32.5011 33.7167 30.8525 31.2514 30.6072L30.1524 30.4978V31.6023V34.5985C27.6463 34.4614 25.7408 33.5248 24.4081 31.9782C23.0945 30.4538 22.2575 28.2433 22.0474 25.3843H23.1271C23.4899 30.1573 25.7705 32.5749 28.0092 33.1346L29.2517 33.4452V32.1644Z"  stroke-width="2"></path>
  </symbol>
  <symbol  xmlns="http://www.w3.org/2000/svg" viewBox="0 0 60 60" id="yt">
    <circle cx="30" cy="30" r="29.5" ></circle>
    <path d="M35 23H25C22.7909 23 21 24.7909 21 27V33C21 35.2091 22.7909 37 25 37H35C37.2091 37 39 35.2091 39 33V27C39 24.7909 37.2091 23 35 23Z"  stroke-width="1.5" stroke-linecap="round" stroke-linejoin="round"></path>
    <path d="M28 27L33 30L28 33V27Z"  stroke-width="1.5" stroke-linecap="round" stroke-linejoin="round"></path>
  </symbol>
</svg>