<svg width="60" height="61" viewBox="0 0 60 61" fill="none" xmlns="http://www.w3.org/2000/svg">
<path d="M30 2.31226L7.5 11.2198V30.1515C7.50733 34.9772 8.78108 39.7167 11.194 43.896C13.6069 48.0752 17.0744 51.548 21.25 53.9672L30 59.0175L38.75 53.9662C42.9255 51.5472 46.393 48.0745 48.8058 43.8955C51.2188 39.7162 52.4925 34.9772 52.5 30.1515V11.2198L30 2.31226ZM50 30.1515C49.9933 34.5385 48.8353 38.847 46.6418 42.6462C44.4482 46.4452 41.296 49.6022 37.5 51.8015L30 56.1312L22.5 51.8015C18.704 49.6022 15.5517 46.4455 13.3582 42.6462C11.1646 38.847 10.0067 34.5385 10 30.1515V12.9188L30 5.00152L50 12.9193V30.1515ZM22.5465 25.9227L20.7787 27.6902L28.4937 35.405L39.69 24.2113L37.9222 22.4438L28.4937 31.87L22.5465 25.9227Z" fill="#FEC110"/>
</svg>
