<svg width="60" height="61" viewBox="0 0 60 61" fill="none" xmlns="http://www.w3.org/2000/svg">
<path fill-rule="evenodd" clip-rule="evenodd" d="M35 52.5015L37.7864 50.0015H60V51.2515C54.9077 52.0897 49.755 52.5077 44.5942 52.5015H35ZM10.0135 7.50146L12.4404 30.0015L14.9066 29.5564L12.7978 10.0015H47.2025L44.5395 34.69C44.4828 35.2223 44.3778 35.7447 44.2274 36.2515L46.3934 37.6478C46.7112 36.7869 46.9249 35.8841 47.0248 34.958L47.29 32.5015H48.292C50.7592 32.5015 53.1393 31.5895 54.9748 29.9407C56.81 28.292 57.9712 26.023 58.2347 23.57L58.681 19.42C58.7748 18.5478 58.684 17.6657 58.4145 16.831C58.145 15.9963 57.7027 15.2276 57.1165 14.575C56.5305 13.9225 55.8135 13.4006 55.0125 13.0433C54.2112 12.6861 53.344 12.5014 52.4668 12.5015H49.4473L49.9865 7.50146H10.0135ZM49.1775 15.0015H52.4668C52.993 15.0015 53.5132 15.1122 53.9937 15.3265C54.4745 15.5408 54.9045 15.8538 55.2563 16.2453C55.6078 16.6367 55.8732 17.0977 56.035 17.5984C56.1967 18.0991 56.2515 18.6283 56.1952 19.1515L55.75 23.303C55.555 25.144 54.6847 26.8475 53.3075 28.0845C51.9302 29.3217 50.1432 30.0045 48.292 30.0015H47.5595L49.1775 15.0015Z" fill="#FEC110"/>
<mask id="path-2-inside-1_17_4209" fill="white">
<path d="M7.20775 48.4631L9.00073 50.2561C10.5714 48.6579 12.4446 47.3884 14.5111 46.5219C16.5775 45.6554 18.796 45.2091 21.0367 45.2091C23.2775 45.2091 25.496 45.6554 27.5625 46.5219C29.629 47.3884 31.5022 48.6579 33.0727 50.2561L34.8657 48.4629C33.054 46.6394 30.8992 45.1921 28.526 44.2046C26.1525 43.2171 23.6075 42.7086 21.0367 42.7086C18.4662 42.7086 15.9209 43.2171 13.5475 44.2046C11.1742 45.1921 9.01958 46.6394 7.20775 48.4629V48.4631ZM14.438 55.6934L16.1865 57.4419C16.821 56.8006 17.5762 56.2914 18.4087 55.9439C19.2412 55.5964 20.1345 55.4176 21.0365 55.4176C21.9387 55.4176 22.8317 55.5964 23.6642 55.9439C24.4967 56.2914 25.252 56.8006 25.8865 57.4419L27.6347 55.6934C26.7752 54.8146 25.7487 54.1161 24.6155 53.6394C23.4822 53.1626 22.2655 52.9171 21.036 52.9171C19.8067 52.9171 18.5897 53.1626 17.4565 53.6394C16.3232 54.1161 15.2968 54.8146 14.4373 55.6934H14.438ZM0 41.2554L1.78675 43.0421C4.3041 40.4949 7.30193 38.4726 10.6065 37.0924C13.9111 35.7124 17.4567 35.0016 21.038 35.0016C24.6192 35.0016 28.165 35.7124 31.4695 37.0924C34.774 38.4726 37.772 40.4949 40.2892 43.0421L42.075 41.2564C39.319 38.4819 36.0415 36.2801 32.431 34.7776C28.8207 33.275 24.9487 32.5015 21.0382 32.5015C17.1275 32.5015 13.2556 33.275 9.64515 34.7776C6.03473 36.2801 2.7572 38.4819 0.00124991 41.2564L0 41.2554Z"/>
</mask>
<path d="M7.20775 48.4631L9.00073 50.2561C10.5714 48.6579 12.4446 47.3884 14.5111 46.5219C16.5775 45.6554 18.796 45.2091 21.0367 45.2091C23.2775 45.2091 25.496 45.6554 27.5625 46.5219C29.629 47.3884 31.5022 48.6579 33.0727 50.2561L34.8657 48.4629C33.054 46.6394 30.8992 45.1921 28.526 44.2046C26.1525 43.2171 23.6075 42.7086 21.0367 42.7086C18.4662 42.7086 15.9209 43.2171 13.5475 44.2046C11.1742 45.1921 9.01958 46.6394 7.20775 48.4629V48.4631ZM14.438 55.6934L16.1865 57.4419C16.821 56.8006 17.5762 56.2914 18.4087 55.9439C19.2412 55.5964 20.1345 55.4176 21.0365 55.4176C21.9387 55.4176 22.8317 55.5964 23.6642 55.9439C24.4967 56.2914 25.252 56.8006 25.8865 57.4419L27.6347 55.6934C26.7752 54.8146 25.7487 54.1161 24.6155 53.6394C23.4822 53.1626 22.2655 52.9171 21.036 52.9171C19.8067 52.9171 18.5897 53.1626 17.4565 53.6394C16.3232 54.1161 15.2968 54.8146 14.4373 55.6934H14.438ZM0 41.2554L1.78675 43.0421C4.3041 40.4949 7.30193 38.4726 10.6065 37.0924C13.9111 35.7124 17.4567 35.0016 21.038 35.0016C24.6192 35.0016 28.165 35.7124 31.4695 37.0924C34.774 38.4726 37.772 40.4949 40.2892 43.0421L42.075 41.2564C39.319 38.4819 36.0415 36.2801 32.431 34.7776C28.8207 33.275 24.9487 32.5015 21.0382 32.5015C17.1275 32.5015 13.2556 33.275 9.64515 34.7776C6.03473 36.2801 2.7572 38.4819 0.00124991 41.2564L0 41.2554Z" fill="#FEC110"/>
<path d="M7.20775 48.4631H6.20775V48.8773L6.50064 49.1702L7.20775 48.4631ZM9.00073 50.2561L8.29361 50.9632L9.00691 51.6765L9.71397 50.957L9.00073 50.2561ZM14.5111 46.5219L14.8977 47.4441L14.8978 47.4441L14.5111 46.5219ZM33.0727 50.2561L32.3595 50.957L33.0666 51.6766L33.7799 50.9632L33.0727 50.2561ZM34.8657 48.4629L35.5729 49.1699L36.2776 48.4651L35.5751 47.758L34.8657 48.4629ZM28.526 44.2046L28.9101 43.2814L28.9101 43.2813L28.526 44.2046ZM7.20775 48.4629L6.49838 47.758L6.20775 48.0505V48.4629H7.20775ZM14.438 55.6934L15.1451 54.9863L14.8522 54.6934H14.438V55.6934ZM16.1865 57.4419L15.4794 58.149L16.1902 58.8598L16.8973 58.1452L16.1865 57.4419ZM25.8865 57.4419L25.1756 58.1452L25.8828 58.8599L26.5936 58.1489L25.8865 57.4419ZM27.6347 55.6934L28.3419 56.4004L29.0411 55.7011L28.3496 54.9941L27.6347 55.6934ZM14.4373 55.6934L13.7224 54.9941L12.0602 56.6934H14.4373V55.6934ZM0 41.2554L0.624332 40.4742L-0.707107 41.9625L0 41.2554ZM1.78675 43.0421L1.07964 43.7492L1.79094 44.4605L2.49802 43.745L1.78675 43.0421ZM10.6065 37.0924L10.2212 36.1696L10.2211 36.1696L10.6065 37.0924ZM31.4695 37.0924L31.8549 36.1696L31.8548 36.1696L31.4695 37.0924ZM40.2892 43.0421L39.5779 43.745L40.285 44.4605L40.9963 43.7492L40.2892 43.0421ZM42.075 41.2564L42.7821 41.9635L43.4868 41.2587L42.7844 40.5516L42.075 41.2564ZM32.431 34.7776L32.0467 35.7008L32.0468 35.7008L32.431 34.7776ZM9.64515 34.7776L10.0294 35.7008L10.0294 35.7008L9.64515 34.7776ZM0.00124991 41.2564L-0.623082 42.0375L0.0781243 42.598L0.710724 41.9611L0.00124991 41.2564ZM6.50064 49.1702L8.29361 50.9632L9.70784 49.549L7.91486 47.756L6.50064 49.1702ZM9.71397 50.957C11.1915 49.4535 12.9538 48.2592 14.8977 47.4441L14.1244 45.5997C11.9354 46.5175 9.95117 47.8622 8.28748 49.5552L9.71397 50.957ZM14.8978 47.4441C16.8417 46.6289 18.9287 46.2091 21.0367 46.2091V44.2091C18.6632 44.2091 16.3132 44.6818 14.1244 45.5997L14.8978 47.4441ZM21.0367 46.2091C23.1447 46.2091 25.2318 46.6289 27.1758 47.4441L27.9492 45.5997C25.7602 44.6818 23.4102 44.2091 21.0367 44.2091V46.2091ZM27.1758 47.4441C29.1198 48.2592 30.882 49.4535 32.3595 50.957L33.786 49.5552C32.1224 47.8622 30.1381 46.5175 27.9492 45.5997L27.1758 47.4441ZM33.7799 50.9632L35.5729 49.1699L34.1586 47.7558L32.3656 49.5491L33.7799 50.9632ZM35.5751 47.758C33.6704 45.841 31.4051 44.3195 28.9101 43.2814L28.1418 45.1279C30.3933 46.0647 32.4375 47.4377 34.1563 49.1677L35.5751 47.758ZM28.9101 43.2813C26.4149 42.2432 23.7394 41.7086 21.0367 41.7086V43.7086C23.4756 43.7086 25.89 44.191 28.1418 45.1279L28.9101 43.2813ZM21.0367 41.7086C18.3343 41.7086 15.6584 42.2432 13.1634 43.2813L13.9317 45.1279C16.1833 44.191 18.5981 43.7086 21.0367 43.7086V41.7086ZM13.1634 43.2813C10.6683 44.3195 8.40313 45.841 6.49838 47.758L7.91712 49.1677C9.63602 47.4377 11.6801 46.0647 13.9317 45.1279L13.1634 43.2813ZM6.20775 48.4629V48.4631H8.20775V48.4629H6.20775ZM13.7309 56.4005L15.4794 58.149L16.8936 56.7348L15.1451 54.9863L13.7309 56.4005ZM16.8973 58.1452C17.4389 57.5978 18.0835 57.1632 18.7939 56.8667L18.0235 55.021C17.0689 55.4195 16.203 56.0034 15.4756 56.7385L16.8973 58.1452ZM18.7939 56.8667C19.5043 56.5702 20.2666 56.4176 21.0365 56.4176V54.4176C20.0024 54.4176 18.9782 54.6225 18.0235 55.021L18.7939 56.8667ZM21.0365 56.4176C21.8066 56.4176 22.5687 56.5702 23.279 56.8667L24.0494 55.021C23.0948 54.6225 22.0708 54.4176 21.0365 54.4176V56.4176ZM23.279 56.8667C23.9894 57.1632 24.634 57.5978 25.1756 58.1452L26.5973 56.7385C25.8699 56.0034 25.004 55.4195 24.0494 55.021L23.279 56.8667ZM26.5936 58.1489L28.3419 56.4004L26.9276 54.9863L25.1793 56.7348L26.5936 58.1489ZM28.3496 54.9941C27.3971 54.0202 26.2594 53.246 25.0033 52.7176L24.2277 54.5611C25.2381 54.9862 26.1534 55.609 26.9198 56.3926L28.3496 54.9941ZM25.0033 52.7176C23.7472 52.1892 22.3986 51.9171 21.036 51.9171V53.9171C22.1323 53.9171 23.2172 54.136 24.2277 54.5611L25.0033 52.7176ZM21.036 51.9171C19.6736 51.9171 18.3247 52.1892 17.0687 52.7176L17.8443 54.5611C18.8547 54.136 19.9399 53.9171 21.036 53.9171V51.9171ZM17.0687 52.7176C15.8126 53.2461 14.675 54.0202 13.7224 54.9941L15.1521 56.3926C15.9187 55.609 16.8339 54.9862 17.8443 54.5611L17.0687 52.7176ZM14.4373 56.6934H14.438V54.6934H14.4373V56.6934ZM-0.707107 41.9625L1.07964 43.7492L2.49386 42.335L0.707107 40.5483L-0.707107 41.9625ZM2.49802 43.745C4.92235 41.2919 7.80941 39.3444 10.9919 38.0151L10.2211 36.1696C6.79444 37.6009 3.68585 39.6978 1.07548 42.3392L2.49802 43.745ZM10.9919 38.0151C14.1744 36.6861 17.589 36.0016 21.038 36.0016V34.0016C17.3244 34.0016 13.6478 34.7386 10.2212 36.1696L10.9919 38.0151ZM21.038 36.0016C24.4869 36.0016 27.9017 36.6861 31.0841 38.0151L31.8548 36.1696C28.4283 34.7386 24.7515 34.0016 21.038 34.0016V36.0016ZM31.0841 38.0151C34.2665 39.3444 37.1537 41.2919 39.5779 43.745L41.0005 42.3392C38.3902 39.6978 35.2815 37.6009 31.8549 36.1696L31.0841 38.0151ZM40.9963 43.7492L42.7821 41.9635L41.3679 40.5493L39.5821 42.335L40.9963 43.7492ZM42.7844 40.5516C39.9355 37.6835 36.5474 35.4075 32.8152 33.8543L32.0468 35.7008C35.5355 37.1527 38.7025 39.2802 41.3655 41.9611L42.7844 40.5516ZM32.8152 33.8543C29.0832 32.3011 25.0806 31.5015 21.0382 31.5015V33.5015C24.8168 33.5015 28.5583 34.2489 32.0467 35.7008L32.8152 33.8543ZM21.0382 31.5015C16.9956 31.5015 12.9931 32.3011 9.26092 33.8543L10.0294 35.7008C13.518 34.2489 17.2594 33.5015 21.0382 33.5015V31.5015ZM9.26093 33.8543C5.52876 35.4075 2.14069 37.6835 -0.708225 40.5516L0.710724 41.9611C3.37371 39.2802 6.5407 37.1527 10.0294 35.7008L9.26093 33.8543ZM0.625581 40.4752L0.624332 40.4742L-0.624332 42.0365L-0.623082 42.0375L0.625581 40.4752Z" fill="#FEC110" mask="url(#path-2-inside-1_17_4209)"/>
</svg>
