<svg width="60" height="61" viewBox="0 0 60 61" fill="none" xmlns="http://www.w3.org/2000/svg">
<path d="M56.648 12.4863L59.7052 10.2906C59.4995 9.31347 59.1472 8.37309 58.6602 7.50134C58.149 6.64354 57.511 5.86809 56.7675 5.20134L53.3375 6.75134L53.3105 6.73609L52.9383 2.99084C51.0343 2.33834 48.9673 2.33834 47.0633 2.99084L46.6895 6.73634L46.6625 6.75134L43.2325 5.20134C42.4893 5.86819 41.851 6.64362 41.3398 7.50134C40.8528 8.37299 40.5005 9.31329 40.2948 10.2903L43.352 12.4861V12.5163L40.2948 14.7121C40.5005 15.6892 40.8528 16.6296 41.3398 17.5013C41.851 18.3591 42.4893 19.1345 43.2325 19.8013L46.6625 18.2513L46.6895 18.2663L47.0617 22.0118C48.9657 22.6643 51.0328 22.6643 52.9368 22.0118L53.3098 18.2666L53.3375 18.2513L56.7675 19.8013C57.5108 19.1344 58.1487 18.359 58.6602 17.5013C59.1472 16.6298 59.4995 15.6895 59.7052 14.7126L56.648 12.5163V12.4863ZM57.541 15.4663C57.2725 16.2291 56.8645 16.9354 56.338 17.5493L54.109 16.5426L53.209 16.1623L52.377 16.6408L51.5415 17.1213L51.4463 18.0803L51.2035 20.5143C50.4087 20.6634 49.5933 20.6634 48.7985 20.5143L48.5558 18.0803L48.4342 17.1053L47.5978 16.6263L46.7658 16.1478L45.8908 16.5431L43.6618 17.5501C43.1353 16.9362 42.7273 16.2298 42.4588 15.4668L44.4455 14.0398L45.2268 13.4486V11.5243L44.4455 10.9631L42.4588 9.53634C42.7273 8.77342 43.1353 8.06702 43.6618 7.45309L45.8908 8.46009L46.7968 8.84234L47.631 8.35759L48.46 7.87634L48.5548 6.92259L48.7975 4.48859C49.5923 4.33991 50.4078 4.33991 51.2025 4.48859L51.4453 6.92259L51.5675 7.89959L52.406 8.37959L53.2373 8.85459L54.109 8.46059L56.338 7.45384C56.8648 8.06762 57.2725 8.77394 57.541 9.53684L55.5543 10.9638L54.773 11.5551V13.4786L55.5543 14.0398L57.541 15.4663ZM50 10.6263C49.6292 10.6263 49.2668 10.7363 48.9583 10.9423C48.65 11.1484 48.4098 11.4412 48.2678 11.7838C48.1258 12.1264 48.0888 12.5034 48.161 12.8671C48.2335 13.2308 48.412 13.5649 48.6742 13.8272C48.9365 14.0894 49.2705 14.268 49.6343 14.3403C49.998 14.4127 50.375 14.3755 50.7175 14.2336C51.0603 14.0917 51.353 13.8514 51.559 13.543C51.765 13.2347 51.875 12.8722 51.875 12.5013C51.875 12.0041 51.6775 11.5271 51.3258 11.1755C50.9743 10.8239 50.4972 10.6263 50 10.6263ZM15.9028 39.6707C15.2396 39.671 14.5914 39.8675 14.04 40.236C13.4887 40.6045 13.0589 41.1282 12.8052 41.741C12.5515 42.3535 12.4851 43.0277 12.6145 43.6782C12.7439 44.3285 13.0633 44.926 13.5322 45.395C14.0011 45.8637 14.5986 46.183 15.249 46.3125C15.8994 46.4417 16.5736 46.3755 17.1862 46.1215C17.7989 45.8677 18.3226 45.438 18.691 44.8867C19.0594 44.3352 19.256 43.687 19.256 43.0237C19.2561 42.5835 19.1694 42.1475 19.0009 41.7407C18.8323 41.3337 18.5853 40.9642 18.274 40.6527C17.9626 40.3415 17.5929 40.0945 17.186 39.926C16.7792 39.7575 16.3431 39.6707 15.9028 39.6707ZM15.9028 44.3767C15.6352 44.3767 15.3736 44.2975 15.1511 44.1487C14.9286 44.0002 14.7552 43.7887 14.6528 43.5417C14.5504 43.2945 14.5236 43.0222 14.5758 42.76C14.628 42.4975 14.7569 42.2562 14.9461 42.0672C15.1353 41.878 15.3764 41.749 15.6388 41.6967C15.9013 41.6447 16.1733 41.6715 16.4206 41.7737C16.6678 41.8762 16.8791 42.0497 17.0278 42.2722C17.1764 42.4947 17.2558 42.7562 17.2558 43.0237C17.2552 43.3825 17.1124 43.7262 16.8588 43.9797C16.6052 44.2332 16.2614 44.376 15.9028 44.3762V44.3767ZM37.1833 39.6707C36.52 39.6707 35.8718 39.8675 35.3205 40.2357C34.769 40.6042 34.3393 41.128 34.0853 41.7405C33.8315 42.3532 33.765 43.0275 33.8945 43.6777C34.0238 44.3282 34.343 44.9257 34.812 45.3947C35.281 45.8637 35.8783 46.183 36.5288 46.3125C37.1793 46.4417 37.8535 46.3755 38.466 46.1217C39.0788 45.868 39.6025 45.4382 39.971 44.8867C40.3393 44.3352 40.536 43.687 40.536 43.0237C40.536 42.1347 40.1828 41.282 39.554 40.653C38.9253 40.0242 38.0725 39.671 37.1833 39.6707ZM37.1833 44.3767C36.9158 44.3767 36.6543 44.2975 36.4318 44.1487C36.2093 44 36.0358 43.7887 35.9335 43.5415C35.831 43.2942 35.8043 43.0222 35.8565 42.7597C35.9088 42.4972 36.0378 42.2562 36.227 42.067C36.4163 41.8777 36.6573 41.749 36.9198 41.6967C37.182 41.6447 37.4543 41.6715 37.7013 41.774C37.9485 41.8762 38.1598 42.0497 38.3085 42.2722C38.4573 42.4947 38.5365 42.7562 38.5365 43.0237C38.536 43.3825 38.3933 43.7262 38.1395 43.98C37.8858 44.2335 37.542 44.376 37.1833 44.3762V44.3767ZM42.6715 26.0862C42.416 25.1337 41.8748 24.2822 41.1205 23.6465C40.3663 23.0109 39.4355 22.6217 38.4533 22.5313C38.3063 22.5116 37.9768 22.5013 37.825 22.5013H15.263C15.1283 22.5013 14.813 22.5093 14.682 22.5251C13.6904 22.6063 12.7481 22.9921 11.9843 23.6296C11.2204 24.2671 10.6723 25.1252 10.415 26.0862C10.0978 27.2612 9.83653 28.4485 9.57653 29.6362H3.57178V35.2247L8.35953 36.8872C8.02853 39.579 7.84225 42.2862 7.80153 44.9977C7.79553 45.3185 7.79303 46.1277 7.79303 46.4477V54.8347C7.79303 55.0515 7.8357 55.266 7.91863 55.4662C8.00155 55.6665 8.12308 55.8485 8.2763 56.0015C8.42953 56.1547 8.61143 56.2762 8.8116 56.3592C9.01178 56.4422 9.22635 56.4847 9.44303 56.4847H13.2203C13.437 56.4847 13.6515 56.4422 13.8517 56.3592C14.0519 56.2762 14.2338 56.1547 14.387 56.0015C14.5402 55.8485 14.6618 55.6665 14.7447 55.4662C14.8276 55.266 14.8703 55.0515 14.8703 54.8347V52.5012H38.2163V54.8355C38.2163 55.2732 38.39 55.693 38.6995 56.0022C39.009 56.3117 39.4288 56.4855 39.8663 56.4855H43.6438C44.0815 56.4855 44.501 56.3117 44.8105 56.0022C45.12 55.693 45.2938 55.2732 45.2938 54.8355V46.448C45.2938 46.132 45.2912 45.328 45.2857 45.012C45.2455 42.2957 45.059 39.5835 44.7272 36.887L49.515 35.2247V29.636H43.5095C43.25 28.4485 42.9883 27.2612 42.6715 26.0862ZM8.65603 34.608L5.82153 33.624V31.886H9.11978C8.95003 32.791 8.79203 33.6975 8.65603 34.608ZM12.8283 26.737C12.9519 26.2737 13.2158 25.8597 13.5838 25.552C13.9518 25.2442 14.406 25.058 14.884 25.0182L15.2638 25.0013H37.825C37.9043 25.0013 38.0643 25.0037 38.163 25.0135C38.6463 25.0502 39.1065 25.2347 39.4813 25.5425C39.8558 25.85 40.1265 26.2655 40.2565 26.7322C40.9818 29.4487 41.5505 32.2047 41.9595 34.9862H11.1268C11.5358 32.2062 12.1039 29.452 12.8283 26.737ZM40.548 54.1532L40.536 50.0012H12.55L12.5378 54.1532H10.293C10.293 54.1532 10.2968 45.3075 10.3015 45.0427C10.3407 42.461 10.516 39.883 10.8265 37.3195H42.259C42.5698 39.8812 42.745 42.4577 42.784 45.0377L42.7913 54.1532H40.548ZM47.2645 31.886V33.624L44.43 34.6082C44.2937 33.6977 44.1357 32.791 43.966 31.886H47.2645Z" fill="#FEC110"/>
</svg>
