<svg width="60" height="60" viewBox="0 0 60 60" fill="none" xmlns="http://www.w3.org/2000/svg">
<circle cx="30" cy="30" r="29.5" stroke="white"/>
<path d="M34 22H26C23.7909 22 22 23.7909 22 26V34C22 36.2091 23.7909 38 26 38H34C36.2091 38 38 36.2091 38 34V26C38 23.7909 36.2091 22 34 22Z" stroke="white" stroke-width="1.5" stroke-linecap="round" stroke-linejoin="round"/>
<path d="M30 33C31.6569 33 33 31.6569 33 30C33 28.3431 31.6569 27 30 27C28.3431 27 27 28.3431 27 30C27 31.6569 28.3431 33 30 33Z" stroke="white" stroke-width="1.5" stroke-linecap="round" stroke-linejoin="round"/>
</svg>
