<svg width="164" height="60" viewBox="0 0 164 60" fill="none" xmlns="http://www.w3.org/2000/svg">
<path d="M60 38.5824L63.2675 22.2022H67.076L70.3227 38.5824H67.1385L66.5349 34.9828H63.871L63.2258 38.5824H60ZM64.1832 32.9403H66.2019L65.1822 26.3276L64.1832 32.9403Z" fill="#2C2C2C"/>
<path d="M72.031 38.5824V22.2022H76.2975C77.0328 22.2022 77.7127 22.2629 78.337 22.3842C78.9614 22.5056 79.5094 22.7213 79.9812 23.0313C80.4668 23.3414 80.8345 23.7728 81.0842 24.3256C81.3478 24.8648 81.4796 25.5726 81.4796 26.4489C81.4796 27.1095 81.3825 27.6758 81.1883 28.1476C80.994 28.606 80.7165 28.97 80.3558 29.2396C79.9951 29.5093 79.5511 29.6913 79.0238 29.7856C79.6759 29.88 80.224 30.0957 80.668 30.4328C81.112 30.7698 81.445 31.2147 81.6669 31.7674C81.8889 32.3202 81.9999 32.9875 81.9999 33.7695C81.9999 34.5918 81.8889 35.3064 81.6669 35.913C81.4588 36.5197 81.1466 37.0185 80.7304 37.4095C80.3142 37.8005 79.8008 38.0971 79.1903 38.2993C78.5799 38.488 77.8722 38.5824 77.0675 38.5824H72.031ZM75.465 36.2366H76.4224C77.2826 36.2366 77.8722 36.0276 78.1914 35.6097C78.5244 35.1918 78.6908 34.5649 78.6908 33.729C78.6908 33.0819 78.6145 32.5696 78.4619 32.1921C78.3093 31.8011 78.0596 31.518 77.7127 31.3428C77.3797 31.154 76.9288 31.0597 76.3599 31.0597H75.465V36.2366ZM75.465 28.815H76.3183C76.9149 28.815 77.3658 28.7341 77.6711 28.5723C77.9763 28.397 78.1844 28.1409 78.2954 27.8038C78.4203 27.4533 78.4827 27.0286 78.4827 26.5298C78.4827 26.031 78.3925 25.6333 78.2122 25.3367C78.0457 25.0266 77.7821 24.8042 77.4213 24.6694C77.0745 24.5345 76.6305 24.4671 76.0894 24.4671H75.465V28.815Z" fill="#2C2C2C"/>
<path d="M85.5633 38.5824V24.6896H82.9618V22.2022H91.5779V24.6896H89.0181V38.5824H85.5633Z" fill="#2C2C2C"/>
<path d="M97.8106 38.8049C96.5758 38.8049 95.5976 38.5891 94.8761 38.1577C94.1547 37.7263 93.6344 37.1129 93.3153 36.3175C93.01 35.5086 92.8574 34.5447 92.8574 33.4257V27.3185C92.8574 26.1995 93.01 25.2423 93.3153 24.4469C93.6344 23.6515 94.1547 23.0448 94.8761 22.6269C95.5976 22.209 96.5758 22 97.8106 22C99.0593 22 100.044 22.2157 100.766 22.6471C101.501 23.065 102.022 23.6717 102.327 24.4671C102.646 25.2491 102.805 26.1995 102.805 27.3185V33.4257C102.805 34.5447 102.646 35.5086 102.327 36.3175C102.022 37.1129 101.501 37.7263 100.766 38.1577C100.044 38.5891 99.0593 38.8049 97.8106 38.8049ZM97.8106 36.3984C98.2546 36.3984 98.5806 36.304 98.7888 36.1153C98.9969 35.913 99.1356 35.6501 99.205 35.3266C99.2744 34.9895 99.3091 34.6323 99.3091 34.2548V26.5096C99.3091 26.1321 99.2744 25.7816 99.205 25.458C99.1356 25.1345 98.9969 24.8783 98.7888 24.6896C98.5806 24.4874 98.2546 24.3862 97.8106 24.3862C97.3944 24.3862 97.0822 24.4874 96.8741 24.6896C96.666 24.8783 96.5272 25.1345 96.4578 25.458C96.3885 25.7816 96.3538 26.1321 96.3538 26.5096V34.2548C96.3538 34.6323 96.3815 34.9895 96.437 35.3266C96.5064 35.6501 96.6451 35.913 96.8533 36.1153C97.0614 36.304 97.3805 36.3984 97.8106 36.3984Z" fill="#2C2C2C"/>
<path d="M114.859 42L114.443 38.5824H105.14V22.2022H108.574V36.3175H111.821V22.2022H115.255V36.3175H117.398V42H114.859Z" fill="#2C2C2C"/>
<path d="M119.081 38.5824V22.2022H126.428V24.5076H122.515V28.8554H125.533V31.181H122.515V36.3175H126.47V38.5824H119.081Z" fill="#2C2C2C"/>
<path d="M128.248 38.5824V22.2022H131.682V28.9363H134.659V22.2022H138.092V38.5824H134.659V31.3225H131.682V38.5824H128.248Z" fill="#2C2C2C"/>
<path d="M142.268 38.5824V24.6896H139.666V22.2022H148.282V24.6896H145.722V38.5824H142.268Z" fill="#2C2C2C"/>
<path d="M149.811 38.5824V22.2022H155.16C156.173 22.2022 156.998 22.391 157.637 22.7685C158.275 23.1325 158.747 23.665 159.052 24.366C159.371 25.0671 159.53 25.9164 159.53 26.9141C159.53 28.087 159.322 29.0037 158.906 29.6643C158.504 30.3249 157.949 30.7968 157.241 31.0799C156.534 31.3495 155.722 31.4843 154.806 31.4843H153.245V38.5824H149.811ZM153.245 29.1385H154.452C154.952 29.1385 155.333 29.0644 155.597 28.9161C155.875 28.7543 156.062 28.5049 156.159 28.1678C156.256 27.8308 156.305 27.3994 156.305 26.8736C156.305 26.3748 156.263 25.9569 156.18 25.6198C156.11 25.2828 155.944 25.0199 155.68 24.8311C155.417 24.6424 155 24.548 154.432 24.548H153.245V29.1385Z" fill="#2C2C2C"/>
<path d="M161.003 38.5824V35.6097H164V38.5824H161.003Z" fill="#2C2C2C"/>
<circle cx="25" cy="30" r="25" fill="#FEC110"/>
<g clip-path="url(#clip0_11_538)">
<path d="M-42.2953 29.1966V22.5906L-43.2831 19.9358L-41.9249 20.3062L-40.6284 22.5905L-35.9979 23.0844L-32.4788 22.5905C-32.4788 22.5905 -18.2167 15.7375 -3.95582 15.7375C3.51458 15.7375 7.58357 16.1448 11.3924 17.4787C13.3431 18.1641 15.2264 19.0839 17.4676 20.3187L17.4682 20.3243C19.3945 21.3864 21.5803 22.6829 24.2968 24.245L24.8893 24.5848C25.087 24.7021 25.2909 24.8131 25.4942 24.9304C25.8029 25.1093 34.3845 25.0538 40.8671 26.1034C47.3496 27.1529 51.486 29.7459 51.486 29.7459L52.3504 31.8451L53.153 32.5859L52.5356 38.6364L54.2025 40.7355H43.157V35.1854C43.157 30.6847 39.5082 27.0297 35.0013 27.0297C30.4944 27.0297 26.8457 30.6785 26.8457 35.1854V40.7355H-11.7359V35.1854C-11.7359 30.6847 -15.3847 27.0297 -19.8916 27.0297C-24.3923 27.0297 -28.0473 30.6785 -28.0473 35.1854V39.5874L-43.9697 36.9757V30.6783L-42.2953 29.1966ZM20.9073 37.1609C21.395 37.1609 21.8272 36.846 21.988 36.3832L23.7909 30.9808C23.902 30.641 23.723 30.2705 23.3775 30.1533C23.3095 30.1284 23.2415 30.1222 23.1736 30.1222L22.0991 30.1227L20.1235 37.1609L20.9073 37.1609ZM-2.96693 25.2454L18.5801 26.1097V23.702C18.5801 23.702 11.1714 18.3308 4.1327 18.3308H-4.2019L-2.96693 25.2454ZM-20.1306 24.875H-7.35014V18.3307C-12.4744 18.3307 -21.427 22.2202 -21.427 22.2202L-20.1306 24.875Z" fill="#2C2C2C"/>
<path d="M38.0101 35.191L38.6456 35.2035V35.1848C38.6456 34.7096 38.5527 34.24 38.3738 33.7954L37.1203 34.3142C37.2313 34.5861 37.2931 34.8823 37.2931 35.1786V35.191L38.0101 35.191Z" fill="#2C2C2C"/>
<path d="M37.114 36.061C36.9967 36.3391 36.8302 36.5918 36.6201 36.8019L37.5773 37.7648C37.9172 37.4249 38.1822 37.0239 38.3674 36.5855L37.114 36.061Z" fill="#2C2C2C"/>
<path d="M36.6195 33.5727L37.5824 32.6155C37.2426 32.2756 36.8478 32.0043 36.4031 31.8191L35.8781 33.0725C36.1568 33.1904 36.4094 33.3631 36.6195 33.5727Z" fill="#2C2C2C"/>
<path d="M35.0028 37.469V38.8272C35.478 38.8272 35.9538 38.7343 36.3922 38.5491L35.8733 37.2957C35.5958 37.4135 35.299 37.469 35.0028 37.469Z" fill="#2C2C2C"/>
<path d="M33.4585 35.1851C33.4585 36.0376 34.1496 36.7286 35.0021 36.7286C35.8545 36.7286 36.5456 36.0376 36.5456 35.1851C36.5456 34.3326 35.8546 33.6416 35.0021 33.6416C34.1496 33.6416 33.4585 34.3326 33.4585 35.1851Z" fill="#2C2C2C"/>
<path d="M35.0028 32.9H35.009V31.5417H35.0028C34.5276 31.5417 34.058 31.6346 33.6196 31.8136L34.1385 33.0733C34.4103 32.9555 34.7066 32.9 35.0028 32.9Z" fill="#2C2C2C"/>
<path d="M33.3846 36.8018L32.4217 37.759C32.7615 38.0988 33.1625 38.3639 33.6009 38.5491L34.1198 37.2957C33.8479 37.1784 33.6009 37.0119 33.3846 36.8018Z" fill="#2C2C2C"/>
<path d="M32.4349 32.5984C32.095 32.932 31.8237 33.333 31.6385 33.7776L32.892 34.3027C33.0092 34.0246 33.1757 33.7776 33.3921 33.5618L32.4349 32.5984Z" fill="#2C2C2C"/>
<path d="M32.7176 35.1721H31.3594V35.1846C31.3594 35.6598 31.4523 36.1356 31.6375 36.5796L32.8909 36.0608C32.7737 35.7827 32.7182 35.4865 32.7182 35.1902L32.7176 35.1721Z" fill="#2C2C2C"/>
<path d="M35.0028 27.7756C39.0962 27.7756 42.4114 31.0908 42.4114 35.1843C42.4114 39.2776 39.0963 42.5929 35.0028 42.5929C30.9093 42.5929 27.5942 39.2778 27.5942 35.1843C27.5942 31.0909 30.9093 27.7756 35.0028 27.7756ZM35.0028 39.2589C37.2565 39.2589 39.0776 37.4374 39.0776 35.1841C39.0776 32.9304 37.2561 31.1093 35.0028 31.1093C32.7491 31.1093 30.928 32.9308 30.928 35.1841C30.928 37.4379 32.7495 39.2589 35.0028 39.2589Z" fill="#2C2C2C"/>
<path d="M38.0101 35.191L38.6456 35.2035V35.1848C38.6456 34.7096 38.5527 34.24 38.3738 33.7954L37.1203 34.3142C37.2313 34.5861 37.2931 34.8823 37.2931 35.1786V35.191L38.0101 35.191Z" fill="#2C2C2C"/>
<path d="M37.114 36.061C36.9967 36.3391 36.8302 36.5918 36.6201 36.8019L37.5773 37.7648C37.9172 37.4249 38.1822 37.0239 38.3674 36.5855L37.114 36.061Z" fill="#2C2C2C"/>
<path d="M36.6195 33.5727L37.5824 32.6155C37.2426 32.2756 36.8478 32.0043 36.4031 31.8191L35.8781 33.0725C36.1568 33.1904 36.4094 33.3631 36.6195 33.5727Z" fill="#2C2C2C"/>
<path d="M35.0028 37.469V38.8272C35.478 38.8272 35.9538 38.7343 36.3922 38.5491L35.8733 37.2957C35.5958 37.4135 35.299 37.469 35.0028 37.469Z" fill="#2C2C2C"/>
<path d="M33.4585 35.1851C33.4585 36.0376 34.1496 36.7286 35.0021 36.7286C35.8545 36.7286 36.5456 36.0376 36.5456 35.1851C36.5456 34.3326 35.8546 33.6416 35.0021 33.6416C34.1496 33.6416 33.4585 34.3326 33.4585 35.1851Z" fill="#2C2C2C"/>
<path d="M35.0028 32.9H35.009V31.5417H35.0028C34.5276 31.5417 34.058 31.6346 33.6196 31.8136L34.1385 33.0733C34.4103 32.9555 34.7066 32.9 35.0028 32.9Z" fill="#2C2C2C"/>
<path d="M33.3846 36.8018L32.4217 37.759C32.7615 38.0988 33.1625 38.3639 33.6009 38.5491L34.1198 37.2957C33.8479 37.1784 33.6009 37.0119 33.3846 36.8018Z" fill="#2C2C2C"/>
<path d="M32.8974 34.3021C33.0146 34.024 33.1812 33.7771 33.3975 33.5613L32.4403 32.5984C32.1004 32.932 31.8292 33.333 31.6439 33.7776L32.8974 34.3021Z" fill="#2C2C2C"/>
<path d="M31.3604 35.1721V35.1846C31.3604 35.6598 31.4533 36.1356 31.6385 36.5796L32.892 36.0608C32.7747 35.7827 32.7192 35.4865 32.7192 35.1902V35.1778H31.3604V35.1721Z" fill="#2C2C2C"/>
<path d="M33.4585 35.1851C33.4585 36.0376 34.1496 36.7286 35.0021 36.7286C35.8545 36.7286 36.5456 36.0376 36.5456 35.1851C36.5456 34.3326 35.8546 33.6416 35.0021 33.6416C34.1496 33.6416 33.4585 34.3326 33.4585 35.1851Z" fill="#2C2C2C"/>
<path d="M35.0028 37.469C35.299 37.469 35.5958 37.4135 35.8733 37.2957L36.3922 38.5491C35.9538 38.7281 35.4785 38.8272 35.0028 38.8272V37.469ZM33.3846 36.8018C33.5947 37.0119 33.8485 37.1851 34.126 37.2961L33.6072 38.5496C33.1688 38.3643 32.7678 38.0987 32.428 37.7594L33.3846 36.8018ZM37.114 36.061L38.3674 36.5855C38.1822 37.0239 37.9172 37.4249 37.5773 37.7648L36.6201 36.8019C36.8302 36.5918 36.9967 36.3391 37.114 36.061ZM32.7186 35.1851C32.7186 35.4876 32.7741 35.7838 32.8914 36.0557L31.6379 36.5745C31.4527 36.1299 31.3598 35.6609 31.3598 35.1794V35.167L32.7186 35.1664V35.1851ZM38.3742 33.802C38.5532 34.2403 38.6461 34.7156 38.6461 35.1913V35.21L38.01 35.1976L37.2873 35.197V35.1845C37.2873 34.8883 37.2318 34.5977 37.1145 34.3202L38.3742 33.802ZM32.4349 32.5984L33.3921 33.5607C33.1757 33.7708 33.0092 34.024 32.8919 34.3015L31.6385 33.7765C31.8294 33.3386 32.095 32.9382 32.4349 32.5984ZM36.4048 31.8263C36.8432 32.0115 37.2442 32.2834 37.5841 32.6227L36.6212 33.5799C36.411 33.3698 36.1578 33.197 35.8803 33.0798L36.4048 31.8263ZM35.0028 31.5417H35.009V32.9H35.0028C34.7066 32.9 34.4103 32.9555 34.1385 33.0733L33.6196 31.8136C34.058 31.6346 34.5276 31.5417 35.0028 31.5417Z" fill="#2C2C2C"/>
<path d="M-16.8782 35.191L-16.2421 35.2035V35.1848C-16.2421 34.7096 -16.335 34.24 -16.514 33.7954L-17.7674 34.3142C-17.6564 34.5861 -17.5947 34.8823 -17.5947 35.1786V35.191L-16.8782 35.191Z" fill="#2C2C2C"/>
<path d="M-17.7729 36.061C-17.8901 36.3391 -18.0566 36.5918 -18.273 36.8019L-17.3158 37.7648C-16.9759 37.4249 -16.7108 37.0239 -16.5256 36.5855L-17.7729 36.061Z" fill="#2C2C2C"/>
<path d="M-18.2659 33.5727L-17.303 32.6155C-17.6428 32.2756 -18.0376 32.0043 -18.4822 31.8191L-19.0073 33.0725C-18.7292 33.1904 -18.476 33.3631 -18.2659 33.5727Z" fill="#2C2C2C"/>
<path d="M-19.8841 37.469L-19.8903 38.8272H-19.8841C-19.4089 38.8272 -18.9331 38.7343 -18.4947 38.5491L-19.0135 37.2957C-19.2916 37.4135 -19.5878 37.469 -19.8841 37.469Z" fill="#2C2C2C"/>
<path d="M-21.4283 35.1851C-21.4283 36.0376 -20.7373 36.7286 -19.8848 36.7286C-19.0323 36.7286 -18.3412 36.0376 -18.3412 35.1851C-18.3412 34.3326 -19.0323 33.6416 -19.8848 33.6416C-20.7373 33.6416 -21.4283 34.3326 -21.4283 35.1851Z" fill="#2C2C2C"/>
<path d="M-19.884 32.9H-19.8716V31.5417H-19.884C-20.3592 31.5417 -20.8288 31.6346 -21.2672 31.8136L-20.7546 33.0733C-20.4765 32.9555 -20.1803 32.9 -19.884 32.9Z" fill="#2C2C2C"/>
<path d="M-21.5023 36.8018L-22.4651 37.759C-22.1253 38.0988 -21.7243 38.3639 -21.2859 38.5491L-20.7671 37.2957C-21.0389 37.1784 -21.2859 37.0119 -21.5023 36.8018Z" fill="#2C2C2C"/>
<path d="M-22.452 32.5984C-22.7919 32.932 -23.0632 33.333 -23.2484 33.7776L-21.9949 34.3027C-21.8777 34.0246 -21.7111 33.7776 -21.4948 33.5618L-22.452 32.5984Z" fill="#2C2C2C"/>
<path d="M-22.1678 35.1721H-23.526V35.1846C-23.526 35.6598 -23.4331 36.1356 -23.2479 36.5796L-21.9945 36.0608C-22.1117 35.7827 -22.1673 35.4865 -22.1673 35.1902L-22.1678 35.1721Z" fill="#2C2C2C"/>
<path d="M-19.8841 27.7756C-15.7907 27.7756 -12.4754 31.0908 -12.4754 35.1843C-12.4754 39.2776 -15.7906 42.5929 -19.8841 42.5929C-23.9775 42.5929 -27.2927 39.2778 -27.2927 35.1843C-27.2927 31.0909 -23.9775 27.7756 -19.8841 27.7756ZM-19.8841 39.2589C-17.6303 39.2589 -15.8093 37.4374 -15.8093 35.1841C-15.8093 32.9304 -17.6308 31.1093 -19.8841 31.1093C-22.1378 31.1093 -23.9588 32.9308 -23.9588 35.1841C-23.9588 37.4379 -22.1378 39.2589 -19.8841 39.2589Z" fill="#2C2C2C"/>
<path d="M-16.8782 35.191L-16.2421 35.2035V35.1848C-16.2421 34.7096 -16.335 34.24 -16.514 33.7954L-17.7674 34.3142C-17.6564 34.5861 -17.5947 34.8823 -17.5947 35.1786V35.191L-16.8782 35.191Z" fill="#2C2C2C"/>
<path d="M-17.7729 36.061C-17.8901 36.3391 -18.0566 36.5918 -18.273 36.8019L-17.3158 37.7648C-16.9759 37.4249 -16.7108 37.0239 -16.5256 36.5855L-17.7729 36.061Z" fill="#2C2C2C"/>
<path d="M-18.2659 33.5727L-17.303 32.6155C-17.6428 32.2756 -18.0376 32.0043 -18.4822 31.8191L-19.0073 33.0725C-18.7292 33.1904 -18.476 33.3631 -18.2659 33.5727Z" fill="#2C2C2C"/>
<path d="M-19.8841 37.469L-19.8903 38.8272H-19.8841C-19.4089 38.8272 -18.9331 38.7343 -18.4947 38.5491L-19.0135 37.2957C-19.2916 37.4135 -19.5878 37.469 -19.8841 37.469Z" fill="#2C2C2C"/>
<path d="M-21.4283 35.1851C-21.4283 36.0376 -20.7373 36.7286 -19.8848 36.7286C-19.0323 36.7286 -18.3412 36.0376 -18.3412 35.1851C-18.3412 34.3326 -19.0323 33.6416 -19.8848 33.6416C-20.7373 33.6416 -21.4283 34.3326 -21.4283 35.1851Z" fill="#2C2C2C"/>
<path d="M-19.884 32.9H-19.8716V31.5417H-19.884C-20.3592 31.5417 -20.8288 31.6346 -21.2672 31.8136L-20.7546 33.0733C-20.4765 32.9555 -20.1803 32.9 -19.884 32.9Z" fill="#2C2C2C"/>
<path d="M-21.5023 36.8018L-22.4651 37.759C-22.1253 38.0988 -21.7243 38.3639 -21.2859 38.5491L-20.7671 37.2957C-21.0389 37.1784 -21.2859 37.0119 -21.5023 36.8018Z" fill="#2C2C2C"/>
<path d="M-21.9894 34.3021C-21.8722 34.024 -21.7057 33.7771 -21.4893 33.5613L-22.4465 32.5984C-22.7864 32.932 -23.0577 33.333 -23.2429 33.7776L-21.9894 34.3021Z" fill="#2C2C2C"/>
<path d="M-23.526 35.1721V35.1846C-23.526 35.6598 -23.4331 36.1356 -23.2479 36.5796L-21.9945 36.0608C-22.1117 35.7827 -22.1673 35.4865 -22.1673 35.1902L-22.1677 35.1778H-23.5265L-23.526 35.1721Z" fill="#2C2C2C"/>
<path d="M-21.4283 35.1851C-21.4283 36.0376 -20.7373 36.7286 -19.8848 36.7286C-19.0323 36.7286 -18.3412 36.0376 -18.3412 35.1851C-18.3412 34.3326 -19.0323 33.6416 -19.8848 33.6416C-20.7373 33.6416 -21.4283 34.3326 -21.4283 35.1851Z" fill="#2C2C2C"/>
<path d="M-19.8841 37.469C-19.5878 37.469 -19.2916 37.4135 -19.0135 37.2957L-18.4947 38.5491C-18.9331 38.7281 -19.4083 38.8272 -19.8841 38.8272H-19.8903L-19.8841 37.469ZM-21.5023 36.8018C-21.2921 37.0119 -21.0384 37.1851 -20.7608 37.2961L-21.2796 38.5496C-21.718 38.3643 -22.1191 38.0987 -22.4589 37.7594L-21.5023 36.8018ZM-17.7729 36.061L-16.519 36.5864C-16.7042 37.0248 -16.9698 37.4258 -17.3091 37.7657L-18.2663 36.8028C-18.0562 36.5926 -17.8901 36.3391 -17.7729 36.061ZM-22.1678 35.1721L-22.1682 35.1851C-22.1682 35.4876 -22.1127 35.7838 -21.9955 36.0557L-23.2489 36.5745C-23.4342 36.1299 -23.5271 35.6609 -23.5271 35.1794V35.167L-22.1682 35.1664L-22.1678 35.1721ZM-16.5127 33.802C-16.3337 34.2403 -16.2408 34.7156 -16.2408 35.1913V35.21L-16.8769 35.1976H-17.599V35.1851C-17.599 34.8889 -17.6545 34.5983 -17.7718 34.3208L-16.5127 33.802ZM-22.452 32.5984L-21.4948 33.5607C-21.7111 33.7708 -21.8777 34.024 -21.9949 34.3015L-23.2484 33.7765C-23.0575 33.3386 -22.7919 32.9382 -22.452 32.5984ZM-18.4826 31.8263C-18.0442 32.0115 -17.6432 32.2834 -17.3034 32.6227L-18.2663 33.5799C-18.4764 33.3698 -18.7296 33.197 -19.0071 33.0798L-18.4826 31.8263ZM-19.884 31.5417H-19.8716V32.9H-19.884C-20.1803 32.9 -20.4765 32.9555 -20.7546 33.0733L-21.2672 31.8136C-20.8288 31.6346 -20.3592 31.5417 -19.884 31.5417Z" fill="#2C2C2C"/>
</g>
<defs>
<clipPath id="clip0_11_538">
<rect y="5" width="50" height="50" rx="25" fill="white"/>
</clipPath>
</defs>
</svg>
