<svg width="182" height="61" viewBox="0 0 182 61" fill="none" xmlns="http://www.w3.org/2000/svg">
<circle cx="30" cy="30.0029" r="30" fill="white"/>
<path d="M24.168 36.8519C24.4155 36.0282 24.9219 35.3061 25.6122 34.7929C26.3025 34.2797 27.1398 34.0027 28 34.0029H32C32.8612 34.0026 33.6996 34.2803 34.3904 34.7947C35.0811 35.3091 35.5874 36.0327 35.834 36.8579M39 30.0029C39 34.9735 34.9706 39.0029 30 39.0029C25.0294 39.0029 21 34.9735 21 30.0029C21 25.0324 25.0294 21.0029 30 21.0029C34.9706 21.0029 39 25.0324 39 30.0029ZM33 28.0029C33 29.6598 31.6569 31.0029 30 31.0029C28.3431 31.0029 27 29.6598 27 28.0029C27 26.3461 28.3431 25.0029 30 25.0029C31.6569 25.0029 33 26.3461 33 28.0029Z" stroke="#2C2C2C" stroke-width="1.5" stroke-linecap="round" stroke-linejoin="round"/>
<path d="M78.271 10.3438H78.3223C79.1562 9.36621 80.2329 8.87744 81.5522 8.87744C82.5024 8.87744 83.333 9.10645 84.0439 9.56445C84.7617 10.0225 85.312 10.6719 85.6948 11.5127C86.0845 12.3467 86.2793 13.3105 86.2793 14.4043C86.2793 15.6279 86.0674 16.6807 85.6436 17.5625C85.2266 18.4443 84.6489 19.1143 83.9106 19.5723C83.1792 20.0303 82.3452 20.2593 81.4087 20.2593C80.7251 20.2593 80.103 20.1226 79.5425 19.8491C78.9888 19.5688 78.5376 19.1655 78.189 18.6392H78.1479V20.0029H76.4253V4.9707H78.271V10.3438ZM81.3677 10.3848C80.7319 10.3848 80.168 10.5557 79.6758 10.8975C79.1836 11.2393 78.8008 11.7212 78.5273 12.3433C78.2607 12.9585 78.1274 13.6694 78.1274 14.4761C78.1274 15.8569 78.3975 16.9131 78.9375 17.6445C79.4775 18.376 80.2671 18.7417 81.3062 18.7417C81.9282 18.7417 82.4683 18.5742 82.9263 18.2393C83.3911 17.9043 83.75 17.4224 84.0029 16.7935C84.2559 16.1577 84.3823 15.4092 84.3823 14.5479C84.3823 13.6934 84.2627 12.9551 84.0234 12.333C83.7842 11.7041 83.439 11.2222 82.9878 10.8872C82.5366 10.5522 81.9966 10.3848 81.3677 10.3848ZM90.0376 16.2397C90.0376 17.0327 90.2324 17.6343 90.622 18.0444C91.0185 18.4546 91.5825 18.6597 92.3139 18.6597C92.9223 18.6597 93.4521 18.5229 93.9033 18.2495C94.3613 17.9761 94.6928 17.6069 94.8979 17.1421C95.103 16.6772 95.2055 16.0278 95.2055 15.1938V9.12354H97.0512V20.0029H95.3286V18.4956C94.9389 19.0698 94.4604 19.5073 93.893 19.8081C93.3325 20.1089 92.7036 20.2593 92.0063 20.2593C90.7417 20.2593 89.788 19.9346 89.1455 19.2852C88.5097 18.6289 88.1919 17.6958 88.1919 16.4858V9.12354H90.0376V16.2397ZM101.835 9.12354H103.896V10.5488H101.835V17.1421C101.835 17.5454 101.869 17.8462 101.937 18.0444C102.013 18.2427 102.122 18.376 102.266 18.4443C102.409 18.5059 102.607 18.5366 102.86 18.5366C103.106 18.5366 103.452 18.4922 103.896 18.4033L104.142 19.9414C103.616 20.0645 103.086 20.126 102.553 20.126C101.89 20.126 101.377 20.0303 101.015 19.8389C100.659 19.6406 100.396 19.3501 100.225 18.9673C100.068 18.5981 99.9892 17.9316 99.9892 16.9678V10.5488H98.4306V9.12354H99.9892V6.62158L101.835 5.29883V9.12354ZM109.09 15.3989C109.302 15.9868 109.452 16.4346 109.541 16.7422C109.637 17.0498 109.746 17.4497 109.869 17.9419H109.91C110.047 17.3335 110.153 16.9028 110.228 16.6499C110.31 16.3901 110.498 15.8569 110.792 15.0503L112.955 9.12354H114.832L110.423 20.813C110.067 21.7563 109.725 22.4844 109.397 22.9971C109.069 23.5166 108.717 23.8823 108.341 24.0942C107.965 24.3062 107.517 24.4121 106.998 24.4121C106.807 24.4121 106.557 24.3882 106.249 24.3403C105.942 24.2993 105.679 24.2549 105.46 24.207L105.839 22.6484C106.126 22.7578 106.403 22.8125 106.67 22.8125C107.066 22.8125 107.391 22.7134 107.644 22.5151C107.904 22.3169 108.112 22.0503 108.269 21.7153C108.433 21.3872 108.584 21.042 108.721 20.6797C108.857 20.3174 108.939 20.0986 108.967 20.0234L104.834 9.12354H106.824L109.09 15.3989ZM118.057 20.0029H116.211V4.9707H118.057V20.0029ZM127.147 20.0029H125.302V8.30322C124.844 8.76123 124.29 9.18164 123.64 9.56445C122.998 9.94727 122.318 10.2686 121.6 10.5283V8.74414C122.612 8.26562 123.511 7.68457 124.297 7.00098C125.083 6.31738 125.633 5.64062 125.948 4.9707H127.147V20.0029ZM139.201 20.0029V12.8867C139.201 12.0938 139.003 11.4922 138.606 11.082C138.21 10.6719 137.649 10.4668 136.925 10.4668C136.009 10.4668 135.294 10.7437 134.782 11.2974C134.276 11.8511 134.023 12.7329 134.023 13.9429V20.0029H132.177V9.12354H133.9V10.6411C134.262 10.0942 134.73 9.66357 135.304 9.34912C135.886 9.03467 136.528 8.87744 137.232 8.87744C138.49 8.87744 139.44 9.20215 140.083 9.85156C140.725 10.501 141.047 11.4307 141.047 12.6406V20.0029H139.201ZM152.834 22.6279H142.129V21.582H152.834V22.6279ZM155.792 7.0625H153.946V4.9707H155.792V7.0625ZM155.792 20.0029H153.946V9.12354H155.792V20.0029Z" fill="white"/>
<path d="M77.1396 37.8135H82.0684V39.0029H75.4307C75.4307 38.4242 75.6221 37.859 76.0049 37.3076C76.3923 36.7516 76.9847 36.1432 77.7822 35.4824L78.582 34.8193C79.3431 34.1859 79.8991 33.6208 80.25 33.124C80.6055 32.6273 80.7832 32.151 80.7832 31.6953C80.7832 31.3717 80.7012 31.0801 80.5371 30.8203C80.373 30.5605 80.1475 30.3577 79.8604 30.2119C79.5732 30.0615 79.252 29.9863 78.8965 29.9863C78.3086 29.9863 77.8438 30.1595 77.502 30.5059C77.1602 30.8477 76.971 31.3512 76.9346 32.0166L75.6562 31.8184C75.7155 31.2305 75.8841 30.7246 76.1621 30.3008C76.4447 29.8724 76.8206 29.5465 77.29 29.3232C77.7594 29.0954 78.3018 28.9814 78.917 28.9814C79.5505 28.9814 80.1019 29.1022 80.5713 29.3438C81.0452 29.5853 81.4076 29.9157 81.6582 30.335C81.9134 30.7497 82.041 31.2122 82.041 31.7227C82.041 32.3516 81.8268 32.9714 81.3984 33.582C80.9746 34.1927 80.3411 34.8467 79.498 35.5439L78.5684 36.3164C78.2129 36.6172 77.9235 36.8792 77.7002 37.1025C77.4769 37.3213 77.29 37.5583 77.1396 37.8135ZM89.9775 36.0908C89.9775 36.6969 89.8363 37.2347 89.5537 37.7041C89.2712 38.1689 88.877 38.5312 88.3711 38.791C87.8698 39.0462 87.2933 39.1738 86.6416 39.1738C86.0719 39.1738 85.5547 39.0622 85.0898 38.8389C84.625 38.611 84.2445 38.2874 83.9482 37.8682C83.6566 37.4443 83.4766 36.9499 83.4082 36.3848L84.6387 36.1865C84.7708 36.8473 85.0055 37.3418 85.3428 37.6699C85.6846 37.998 86.1175 38.1621 86.6416 38.1621C87.029 38.1621 87.3753 38.0755 87.6807 37.9023C87.9906 37.7246 88.2298 37.4808 88.3984 37.1709C88.5716 36.8564 88.6582 36.5055 88.6582 36.1182C88.6582 35.7308 88.5785 35.3958 88.4189 35.1133C88.2594 34.8262 88.0339 34.6051 87.7422 34.4502C87.4551 34.2952 87.1224 34.2178 86.7441 34.2178H85.6777L85.8281 33.2197H86.0674C86.8376 33.2197 87.4095 33.0762 87.7832 32.7891C88.1615 32.502 88.3506 32.0895 88.3506 31.5518C88.3506 31.0641 88.2002 30.6813 87.8994 30.4033C87.5986 30.1253 87.1885 29.9863 86.6689 29.9863C86.1631 29.9863 85.7415 30.1481 85.4043 30.4717C85.0716 30.7907 84.8597 31.235 84.7686 31.8047L83.5176 31.6133C83.6133 31.071 83.8047 30.6038 84.0918 30.2119C84.3789 29.8154 84.7435 29.5124 85.1855 29.3027C85.6276 29.0885 86.1198 28.9814 86.6621 28.9814C87.2546 28.9814 87.7718 29.0863 88.2139 29.2959C88.6605 29.5055 89.0046 29.8018 89.2461 30.1846C89.4876 30.5674 89.6084 31.0117 89.6084 31.5176C89.6084 31.9824 89.474 32.4017 89.2051 32.7754C88.9362 33.1445 88.5671 33.418 88.0977 33.5957V33.6299C88.4805 33.7165 88.8132 33.876 89.0957 34.1084C89.3783 34.3363 89.5947 34.6211 89.7451 34.9629C89.9001 35.3047 89.9775 35.6807 89.9775 36.0908ZM96.6357 31.75H101.216V37.9912H102.269V41.3955H101.065V39.0029H95.7266V41.3955H94.5234V37.9912H95.3096C95.82 37.0433 96.1686 36.0726 96.3555 35.0791C96.5423 34.0856 96.6357 32.9759 96.6357 31.75ZM99.9854 32.7617H97.8047C97.7591 34.8353 97.374 36.5785 96.6494 37.9912H99.9854V32.7617ZM106.459 38.1621C106.924 38.1621 107.325 38.0254 107.662 37.752C108.004 37.4785 108.241 37.1162 108.373 36.665L109.576 36.8496C109.371 37.5833 108.986 38.1553 108.421 38.5654C107.86 38.971 107.186 39.1738 106.397 39.1738C105.705 39.1738 105.101 39.0212 104.586 38.7158C104.076 38.4105 103.681 37.9775 103.403 37.417C103.125 36.8519 102.986 36.1911 102.986 35.4346C102.986 34.6553 103.123 33.9762 103.396 33.3975C103.67 32.8187 104.062 32.3721 104.572 32.0576C105.087 31.7432 105.691 31.5859 106.384 31.5859C107.054 31.5859 107.637 31.7363 108.134 32.0371C108.631 32.3333 109.013 32.7708 109.282 33.3496C109.551 33.9284 109.686 34.6234 109.686 35.4346V35.6875H104.258C104.285 36.207 104.392 36.6536 104.579 37.0273C104.766 37.3965 105.019 37.679 105.338 37.875C105.661 38.0664 106.035 38.1621 106.459 38.1621ZM106.37 32.5908C106.006 32.5908 105.677 32.6774 105.386 32.8506C105.094 33.0238 104.853 33.2676 104.661 33.582C104.474 33.8965 104.354 34.2611 104.299 34.6758H108.387C108.314 34.0059 108.102 33.4909 107.751 33.1309C107.405 32.7708 106.944 32.5908 106.37 32.5908ZM112.345 31.75V34.7715C112.614 34.7715 112.823 34.735 112.974 34.6621C113.124 34.5846 113.24 34.4798 113.322 34.3477C113.409 34.2155 113.521 34.0013 113.657 33.7051L114.04 32.8643C114.172 32.5726 114.304 32.3493 114.437 32.1943C114.573 32.0394 114.737 31.9277 114.929 31.8594C115.12 31.7865 115.373 31.75 115.688 31.75H116.228V32.7617H115.879C115.719 32.7617 115.596 32.7731 115.51 32.7959C115.428 32.8187 115.35 32.8711 115.277 32.9531C115.204 33.0352 115.129 33.1673 115.052 33.3496L114.689 34.1699C114.557 34.4707 114.421 34.7008 114.279 34.8604C114.143 35.0199 113.947 35.1543 113.691 35.2637C113.974 35.3229 114.211 35.4368 114.402 35.6055C114.598 35.7695 114.785 36.002 114.963 36.3027L116.549 39.0029H115.141L113.849 36.6992C113.698 36.4349 113.557 36.2344 113.425 36.0977C113.293 35.9609 113.142 35.8652 112.974 35.8105C112.81 35.7513 112.6 35.7217 112.345 35.7217V39.0029H111.114V31.75H112.345ZM123.433 39.0029H122.147C122.075 38.848 122.024 38.7227 121.997 38.627C121.97 38.5312 121.936 38.3581 121.895 38.1074C121.544 38.4811 121.172 38.7523 120.78 38.9209C120.388 39.0895 119.939 39.1738 119.434 39.1738C118.978 39.1738 118.575 39.0872 118.224 38.9141C117.877 38.7363 117.608 38.4902 117.417 38.1758C117.23 37.8568 117.137 37.4922 117.137 37.082C117.137 36.4577 117.34 35.9609 117.745 35.5918C118.151 35.2227 118.818 34.9674 119.748 34.8262C120.714 34.6803 121.402 34.5413 121.812 34.4092V34.2178C121.812 33.8122 121.76 33.4932 121.655 33.2607C121.55 33.0238 121.382 32.8529 121.149 32.748C120.922 32.6432 120.612 32.5908 120.22 32.5908C119.728 32.5908 119.338 32.7025 119.051 32.9258C118.768 33.1491 118.581 33.5 118.49 33.9785L117.287 33.7939C117.433 33.0602 117.759 32.5088 118.265 32.1396C118.775 31.7705 119.45 31.5859 120.288 31.5859C120.931 31.5859 121.452 31.668 121.854 31.832C122.255 31.9915 122.553 32.2559 122.749 32.625C122.945 32.9896 123.043 33.4818 123.043 34.1016V36.7061C123.043 37.1572 123.052 37.5059 123.07 37.752C123.093 37.998 123.13 38.21 123.18 38.3877C123.234 38.5654 123.319 38.7705 123.433 39.0029ZM119.803 35.8584C119.315 35.945 118.957 36.0885 118.729 36.2891C118.506 36.4896 118.395 36.7539 118.395 37.082C118.395 37.4329 118.506 37.7087 118.729 37.9092C118.957 38.1051 119.283 38.2031 119.707 38.2031C120.062 38.2031 120.434 38.0892 120.821 37.8613C121.09 37.7018 121.293 37.5309 121.43 37.3486C121.571 37.1618 121.669 36.9362 121.724 36.6719C121.783 36.4076 121.812 36.0635 121.812 35.6396V35.3799C121.703 35.43 121.455 35.5007 121.067 35.5918C120.685 35.6829 120.263 35.7718 119.803 35.8584ZM127.855 32.7754C127.459 32.7754 127.101 32.8734 126.782 33.0693C126.468 33.2607 126.219 33.5365 126.037 33.8965C125.855 34.2565 125.764 34.6735 125.764 35.1475C125.764 36.1592 125.951 36.9157 126.324 37.417C126.702 37.9137 127.215 38.1621 127.862 38.1621C128.282 38.1621 128.653 38.0596 128.977 37.8545C129.3 37.6494 129.553 37.3441 129.735 36.9385C129.922 36.5329 130.016 36.0384 130.016 35.4551C130.016 34.8991 129.924 34.4206 129.742 34.0195C129.564 33.6139 129.312 33.3063 128.983 33.0967C128.66 32.8825 128.284 32.7754 127.855 32.7754ZM127.917 31.7637C128.596 31.7637 129.186 31.9118 129.688 32.208C130.193 32.4997 130.583 32.9235 130.856 33.4795C131.134 34.0309 131.273 34.6872 131.273 35.4482C131.273 36.223 131.134 36.8906 130.856 37.4512C130.583 38.0072 130.189 38.4333 129.674 38.7295C129.163 39.0257 128.562 39.1738 127.869 39.1738C126.734 39.1738 125.889 38.7933 125.333 38.0322C124.782 37.2712 124.506 36.1022 124.506 34.5254C124.506 32.625 124.793 31.2259 125.367 30.3281C125.941 29.4303 126.805 28.9814 127.958 28.9814H129.592C129.806 28.9814 129.918 28.888 129.927 28.7012H130.925C130.925 29.125 130.82 29.4463 130.61 29.665C130.405 29.8838 130.084 29.9932 129.646 29.9932H127.999C127.284 29.9932 126.743 30.2279 126.379 30.6973C126.014 31.1667 125.793 31.873 125.716 32.8164H125.75C125.987 32.4837 126.297 32.2262 126.68 32.0439C127.062 31.8571 127.475 31.7637 127.917 31.7637ZM133.994 38.1758H133.96V41.7783H132.729V31.75H133.878V32.6729H133.905C134.156 32.3219 134.461 32.0531 134.821 31.8662C135.186 31.6794 135.601 31.5859 136.065 31.5859C136.717 31.5859 137.287 31.7409 137.774 32.0508C138.262 32.3607 138.638 32.8027 138.902 33.377C139.167 33.9466 139.299 34.6143 139.299 35.3799C139.299 36.1364 139.169 36.8018 138.909 37.376C138.649 37.9456 138.283 38.3877 137.809 38.7021C137.335 39.0166 136.785 39.1738 136.161 39.1738C135.254 39.1738 134.532 38.8411 133.994 38.1758ZM135.956 32.5908C135.537 32.5908 135.17 32.707 134.855 32.9395C134.541 33.1719 134.299 33.4909 134.131 33.8965C133.962 34.3021 133.878 34.7601 133.878 35.2705C133.878 35.8721 133.965 36.3893 134.138 36.8223C134.315 37.2552 134.564 37.5879 134.883 37.8203C135.206 38.0482 135.585 38.1621 136.018 38.1621C136.441 38.1621 136.804 38.0436 137.104 37.8066C137.41 37.5697 137.64 37.2415 137.795 36.8223C137.954 36.403 138.034 35.9199 138.034 35.373C138.034 34.7943 137.948 34.2952 137.774 33.876C137.601 33.4567 137.357 33.1377 137.043 32.9189C136.733 32.7002 136.371 32.5908 135.956 32.5908ZM142.771 37L141.418 39.0029H139.982L141.479 36.8086C141.675 36.5306 141.849 36.321 141.999 36.1797C142.154 36.0339 142.313 35.9404 142.478 35.8994C141.83 35.8265 141.34 35.6077 141.008 35.2432C140.68 34.8786 140.516 34.416 140.516 33.8555C140.516 33.181 140.737 32.6615 141.179 32.2969C141.625 31.9323 142.313 31.75 143.243 31.75H145.827V39.0029H144.597V36.0566H144.207C144.002 36.0566 143.829 36.0794 143.688 36.125C143.551 36.1706 143.41 36.2617 143.264 36.3984C143.118 36.5306 142.954 36.7311 142.771 37ZM144.597 32.7617H143.229C142.705 32.7617 142.332 32.8551 142.108 33.042C141.885 33.2288 141.773 33.5068 141.773 33.876C141.773 34.2588 141.894 34.5505 142.136 34.751C142.377 34.9469 142.797 35.0449 143.394 35.0449H144.597V32.7617ZM152.772 37.8135H157.701V39.0029H151.063C151.063 38.4242 151.255 37.859 151.638 37.3076C152.025 36.7516 152.618 36.1432 153.415 35.4824L154.215 34.8193C154.976 34.1859 155.532 33.6208 155.883 33.124C156.238 32.6273 156.416 32.151 156.416 31.6953C156.416 31.3717 156.334 31.0801 156.17 30.8203C156.006 30.5605 155.78 30.3577 155.493 30.2119C155.206 30.0615 154.885 29.9863 154.529 29.9863C153.941 29.9863 153.477 30.1595 153.135 30.5059C152.793 30.8477 152.604 31.3512 152.567 32.0166L151.289 31.8184C151.348 31.2305 151.517 30.7246 151.795 30.3008C152.077 29.8724 152.453 29.5465 152.923 29.3232C153.392 29.0954 153.935 28.9814 154.55 28.9814C155.183 28.9814 155.735 29.1022 156.204 29.3438C156.678 29.5853 157.04 29.9157 157.291 30.335C157.546 30.7497 157.674 31.2122 157.674 31.7227C157.674 32.3516 157.46 32.9714 157.031 33.582C156.607 34.1927 155.974 34.8467 155.131 35.5439L154.201 36.3164C153.846 36.6172 153.556 36.8792 153.333 37.1025C153.11 37.3213 152.923 37.5583 152.772 37.8135ZM159.062 34.0947C159.062 33.042 159.153 32.1602 159.335 31.4492C159.517 30.7337 159.845 30.1436 160.319 29.6787C160.793 29.2139 161.461 28.9814 162.322 28.9814C163.407 28.9814 164.223 29.387 164.77 30.1982C165.316 31.0094 165.59 32.3014 165.59 34.0742C165.59 35.7604 165.326 37.0319 164.797 37.8887C164.273 38.7454 163.448 39.1738 162.322 39.1738C161.142 39.1738 160.303 38.7318 159.807 37.8477C159.31 36.9635 159.062 35.7126 159.062 34.0947ZM162.302 29.9932C161.851 29.9932 161.481 30.1253 161.194 30.3896C160.907 30.6494 160.691 31.0801 160.545 31.6816C160.399 32.2786 160.326 33.0807 160.326 34.0879C160.326 35.0905 160.397 35.8903 160.538 36.4873C160.679 37.0798 160.894 37.5081 161.181 37.7725C161.472 38.0322 161.853 38.1621 162.322 38.1621C162.787 38.1621 163.165 38.0322 163.457 37.7725C163.749 37.5081 163.965 37.0798 164.106 36.4873C164.252 35.8903 164.325 35.0905 164.325 34.0879C164.325 33.0807 164.25 32.2786 164.1 31.6816C163.954 31.0801 163.733 30.6494 163.437 30.3896C163.145 30.1253 162.767 29.9932 162.302 29.9932ZM168.358 37.8135H173.287V39.0029H166.649C166.649 38.4242 166.841 37.859 167.224 37.3076C167.611 36.7516 168.203 36.1432 169.001 35.4824L169.801 34.8193C170.562 34.1859 171.118 33.6208 171.469 33.124C171.824 32.6273 172.002 32.151 172.002 31.6953C172.002 31.3717 171.92 31.0801 171.756 30.8203C171.592 30.5605 171.366 30.3577 171.079 30.2119C170.792 30.0615 170.471 29.9863 170.115 29.9863C169.527 29.9863 169.062 30.1595 168.721 30.5059C168.379 30.8477 168.19 31.3512 168.153 32.0166L166.875 31.8184C166.934 31.2305 167.103 30.7246 167.381 30.3008C167.663 29.8724 168.039 29.5465 168.509 29.3232C168.978 29.0954 169.521 28.9814 170.136 28.9814C170.769 28.9814 171.321 29.1022 171.79 29.3438C172.264 29.5853 172.626 29.9157 172.877 30.335C173.132 30.7497 173.26 31.2122 173.26 31.7227C173.26 32.3516 173.046 32.9714 172.617 33.582C172.193 34.1927 171.56 34.8467 170.717 35.5439L169.787 36.3164C169.432 36.6172 169.142 36.8792 168.919 37.1025C168.696 37.3213 168.509 37.5583 168.358 37.8135ZM174.647 34.0947C174.647 33.042 174.739 32.1602 174.921 31.4492C175.103 30.7337 175.431 30.1436 175.905 29.6787C176.379 29.2139 177.047 28.9814 177.908 28.9814C178.993 28.9814 179.809 29.387 180.355 30.1982C180.902 31.0094 181.176 32.3014 181.176 34.0742C181.176 35.7604 180.911 37.0319 180.383 37.8887C179.859 38.7454 179.034 39.1738 177.908 39.1738C176.728 39.1738 175.889 38.7318 175.393 37.8477C174.896 36.9635 174.647 35.7126 174.647 34.0947ZM177.888 29.9932C177.437 29.9932 177.067 30.1253 176.78 30.3896C176.493 30.6494 176.277 31.0801 176.131 31.6816C175.985 32.2786 175.912 33.0807 175.912 34.0879C175.912 35.0905 175.983 35.8903 176.124 36.4873C176.265 37.0798 176.479 37.5081 176.767 37.7725C177.058 38.0322 177.439 38.1621 177.908 38.1621C178.373 38.1621 178.751 38.0322 179.043 37.7725C179.335 37.5081 179.551 37.0798 179.692 36.4873C179.838 35.8903 179.911 35.0905 179.911 34.0879C179.911 33.0807 179.836 32.2786 179.686 31.6816C179.54 31.0801 179.319 30.6494 179.022 30.3896C178.731 30.1253 178.353 29.9932 177.888 29.9932Z" fill="#989898"/>
<g clip-path="url(#clip0_11_445)">
<path fill-rule="evenodd" clip-rule="evenodd" d="M82.9954 45.0043C83.1223 45.0043 83.2382 45.0763 83.2943 45.1901L85.2741 49.2015L89.7006 49.8431C89.8262 49.8613 89.9306 49.9492 89.9698 50.07C90.009 50.1907 89.9762 50.3233 89.8853 50.4118L86.6776 53.5341L87.434 57.9432C87.4554 58.0684 87.404 58.1948 87.3012 58.2694C87.1985 58.3439 87.0623 58.3537 86.95 58.2945L82.9999 56.213L79.0406 58.2946C78.9283 58.3537 78.7922 58.3439 78.6895 58.2693C78.5869 58.1947 78.5355 58.0683 78.5569 57.9432L79.3132 53.5341L76.1056 50.4118C76.0146 50.3233 75.9819 50.1907 76.0211 50.07C76.0603 49.9492 76.1647 49.8613 76.2903 49.8431L80.7168 49.2015L82.6965 45.1901C82.7527 45.0763 82.8686 45.0043 82.9954 45.0043Z" fill="#FEC110" stroke="#FEC110" stroke-linecap="round" stroke-linejoin="round"/>
</g>
<g clip-path="url(#clip1_11_445)">
<path fill-rule="evenodd" clip-rule="evenodd" d="M103.995 45.0043C104.122 45.0043 104.238 45.0763 104.294 45.1901L106.274 49.2015L110.701 49.8431C110.826 49.8613 110.931 49.9492 110.97 50.07C111.009 50.1907 110.976 50.3233 110.885 50.4118L107.678 53.5341L108.434 57.9432C108.455 58.0684 108.404 58.1948 108.301 58.2694C108.199 58.3439 108.062 58.3537 107.95 58.2945L104 56.213L100.041 58.2946C99.9283 58.3537 99.7922 58.3439 99.6895 58.2693C99.5869 58.1947 99.5355 58.0683 99.5569 57.9432L100.313 53.5341L97.1056 50.4118C97.0146 50.3233 96.9819 50.1907 97.0211 50.07C97.0603 49.9492 97.1647 49.8613 97.2903 49.8431L101.717 49.2015L103.697 45.1901C103.753 45.0763 103.869 45.0043 103.995 45.0043Z" fill="#FEC110" stroke="#FEC110" stroke-linecap="round" stroke-linejoin="round"/>
</g>
<g clip-path="url(#clip2_11_445)">
<path fill-rule="evenodd" clip-rule="evenodd" d="M124.995 45.0043C125.122 45.0043 125.238 45.0763 125.294 45.1901L127.274 49.2015L131.701 49.8431C131.826 49.8613 131.931 49.9492 131.97 50.07C132.009 50.1907 131.976 50.3233 131.885 50.4118L128.678 53.5341L129.434 57.9432C129.455 58.0684 129.404 58.1948 129.301 58.2694C129.199 58.3439 129.062 58.3537 128.95 58.2945L125 56.213L121.041 58.2946C120.928 58.3537 120.792 58.3439 120.69 58.2693C120.587 58.1947 120.535 58.0683 120.557 57.9432L121.313 53.5341L118.106 50.4118C118.015 50.3233 117.982 50.1907 118.021 50.07C118.06 49.9492 118.165 49.8613 118.29 49.8431L122.717 49.2015L124.697 45.1901C124.753 45.0763 124.869 45.0043 124.995 45.0043Z" fill="#FEC110" stroke="#FEC110" stroke-linecap="round" stroke-linejoin="round"/>
</g>
<g clip-path="url(#clip3_11_445)">
<path fill-rule="evenodd" clip-rule="evenodd" d="M145.995 45.0043C146.122 45.0043 146.238 45.0763 146.294 45.1901L148.274 49.2015L152.701 49.8431C152.826 49.8613 152.931 49.9492 152.97 50.07C153.009 50.1907 152.976 50.3233 152.885 50.4118L149.678 53.5341L150.434 57.9432C150.455 58.0684 150.404 58.1948 150.301 58.2694C150.199 58.3439 150.062 58.3537 149.95 58.2945L146 56.213L142.041 58.2946C141.928 58.3537 141.792 58.3439 141.69 58.2693C141.587 58.1947 141.535 58.0683 141.557 57.9432L142.313 53.5341L139.106 50.4118C139.015 50.3233 138.982 50.1907 139.021 50.07C139.06 49.9492 139.165 49.8613 139.29 49.8431L143.717 49.2015L145.697 45.1901C145.753 45.0763 145.869 45.0043 145.995 45.0043Z" fill="#FEC110" stroke="#FEC110" stroke-linecap="round" stroke-linejoin="round"/>
</g>
<g clip-path="url(#clip4_11_445)">
<path d="M167 55.8363L162.885 57.9996L163.671 53.4176L160.338 50.173L164.938 49.5063L166.995 45.3376L169.053 49.5063L173.653 50.173L170.319 53.4176L171.105 57.9996L167 55.8363Z" stroke="#989898" stroke-width="1.5" stroke-linecap="round" stroke-linejoin="round"/>
</g>
<defs>
<clipPath id="clip0_11_445">
<rect width="16" height="16" fill="white" transform="translate(75 44.0029)"/>
</clipPath>
<clipPath id="clip1_11_445">
<rect width="16" height="16" fill="white" transform="translate(96 44.0029)"/>
</clipPath>
<clipPath id="clip2_11_445">
<rect width="16" height="16" fill="white" transform="translate(117 44.0029)"/>
</clipPath>
<clipPath id="clip3_11_445">
<rect width="16" height="16" fill="white" transform="translate(138 44.0029)"/>
</clipPath>
<clipPath id="clip4_11_445">
<rect width="16" height="16" fill="white" transform="translate(159 44.0029)"/>
</clipPath>
</defs>
</svg>
