<svg width="60" height="60" viewBox="0 0 60 60" fill="none" xmlns="http://www.w3.org/2000/svg">
<circle cx="30" cy="30" r="29.5" stroke="white"/>
<path d="M40 22.01C39 22.5 38.02 22.699 37 23C35.879 21.735 34.217 21.665 32.62 22.263C31.023 22.861 29.977 24.323 30 26V27C26.755 27.083 23.865 25.605 22 23C22 23 17.818 30.433 26 34C24.128 35.247 22.261 36.088 20 36C23.308 37.803 26.913 38.423 30.034 37.517C33.614 36.477 36.556 33.794 37.685 29.775C38.0218 28.5527 38.189 27.2899 38.182 26.022C38.18 25.773 39.692 23.25 40 22.009V22.01Z" stroke="white" stroke-width="1.5" stroke-linecap="round" stroke-linejoin="round"/>
</svg>
