<svg width="60" height="60" viewBox="0 0 60 60" fill="none" xmlns="http://www.w3.org/2000/svg">
<circle cx="30" cy="30" r="29.5" stroke="white"/>
<path d="M29.2517 32.1644V25.3843H30.1524V28.8253V29.9386L31.2594 29.8195C32.4672 29.6896 33.5825 28.9635 34.4438 28.0565C35.1496 27.3132 35.7471 26.3854 36.141 25.3843H37.0126C36.3225 27.1775 34.9185 28.5163 33.8786 29.1175L32.2208 30.076L33.9547 30.8887C35.0028 31.3801 36.6201 32.5645 37.5729 34.616H36.4982C35.5829 32.5011 33.7167 30.8525 31.2514 30.6072L30.1524 30.4978V31.6023V34.5985C27.6463 34.4614 25.7408 33.5248 24.4081 31.9782C23.0945 30.4538 22.2575 28.2433 22.0474 25.3843H23.1271C23.4899 30.1573 25.7705 32.5749 28.0092 33.1346L29.2517 33.4452V32.1644Z" stroke="white" stroke-width="2"/>
</svg>
